<svg width="500" height="500" viewBox="0 0 500 500" fill="none" xmlns="http://www.w3.org/2000/svg">
<path d="M167.98 279.676C167.98 280.677 167.656 281.501 167.006 282.149C166.356 282.797 165.53 283.121 164.526 283.121C163.523 283.121 162.696 282.797 162.047 282.149C161.397 281.501 161.073 280.677 161.073 279.676V217.587C161.073 216.586 161.397 215.762 162.047 215.114C162.696 214.466 163.523 214.143 164.526 214.143H182.238C186.548 214.143 190.385 215.114 193.751 217.057C197.175 218.941 199.832 221.591 201.721 225.006C203.61 228.362 204.555 232.219 204.555 236.576C204.555 240.874 203.61 244.701 201.721 248.058C199.832 251.414 197.175 254.034 193.751 255.918C190.385 257.802 186.548 258.744 182.238 258.744H167.98V279.676ZM182.238 252.12C185.249 252.12 187.935 251.473 190.297 250.177C192.658 248.823 194.488 246.968 195.787 244.613C197.145 242.258 197.824 239.579 197.824 236.576C197.824 233.514 197.145 230.806 195.787 228.45C194.488 226.036 192.658 224.152 190.297 222.798C187.935 221.444 185.249 220.767 182.238 220.767H167.98V252.12H182.238Z" fill="#2196F3"/>
<path d="M215.828 238.253C215.828 237.252 216.153 236.428 216.802 235.78C217.452 235.132 218.278 234.808 219.282 234.808C220.286 234.808 221.083 235.132 221.673 235.78C222.322 236.428 222.647 237.252 222.647 238.253V279.675C222.647 280.676 222.322 281.5 221.673 282.148C221.083 282.796 220.286 283.119 219.282 283.119C218.278 283.119 217.452 282.796 216.802 282.148C216.153 281.5 215.828 280.676 215.828 279.675V238.253ZM219.282 215.996C220.581 215.996 221.703 216.438 222.647 217.321C223.592 218.204 224.064 219.352 224.064 220.765C224.064 222.119 223.592 223.268 222.647 224.21C221.703 225.152 220.551 225.623 219.194 225.623C217.836 225.623 216.684 225.152 215.74 224.21C214.854 223.268 214.411 222.119 214.411 220.765C214.411 219.352 214.884 218.204 215.828 217.321C216.773 216.438 217.924 215.996 219.282 215.996Z" fill="#2196F3"/>
<path d="M262.061 234.367C266.666 234.367 270.829 235.457 274.548 237.635C278.327 239.755 281.279 242.699 283.404 246.467C285.588 250.235 286.68 254.416 286.68 259.009V279.764C286.68 280.706 286.356 281.501 285.706 282.148C285.057 282.796 284.23 283.12 283.227 283.12C282.223 283.12 281.397 282.825 280.747 282.237C280.098 281.589 279.773 280.765 279.773 279.764V274.465C277.707 277.291 275.08 279.528 271.891 281.177C268.703 282.767 265.19 283.561 261.353 283.561C256.866 283.561 252.792 282.502 249.132 280.382C245.531 278.203 242.667 275.259 240.542 271.55C238.475 267.782 237.442 263.601 237.442 259.009C237.442 254.416 238.505 250.235 240.63 246.467C242.815 242.699 245.767 239.755 249.486 237.635C253.265 235.457 257.457 234.367 262.061 234.367ZM262.061 277.379C265.427 277.379 268.467 276.584 271.183 274.994C273.899 273.405 276.024 271.226 277.559 268.459C279.153 265.633 279.95 262.482 279.95 259.009C279.95 255.535 279.153 252.414 277.559 249.647C276.024 246.82 273.899 244.612 271.183 243.023C268.467 241.374 265.427 240.55 262.061 240.55C258.696 240.55 255.626 241.374 252.851 243.023C250.136 244.612 247.981 246.82 246.387 249.647C244.852 252.414 244.084 255.535 244.084 259.009C244.084 262.482 244.852 265.633 246.387 268.459C247.981 271.226 250.136 273.405 252.851 274.994C255.626 276.584 258.696 277.379 262.061 277.379Z" fill="#2196F3"/>
<path d="M316.68 234.367C320.577 234.367 323.972 235.044 326.865 236.399C329.757 237.694 332.089 239.519 333.861 241.874C334.333 242.64 334.569 243.317 334.569 243.906C334.569 244.907 334.097 245.702 333.152 246.29C332.739 246.585 332.178 246.732 331.47 246.732C330.23 246.732 329.196 246.29 328.37 245.407C325.477 242.11 321.521 240.461 316.503 240.461C313.256 240.461 310.658 241.138 308.71 242.493C306.762 243.788 305.788 245.437 305.788 247.439C305.788 249.559 306.703 251.266 308.533 252.561C310.363 253.798 313.61 254.799 318.274 255.564C324.592 256.624 329.108 258.361 331.824 260.775C334.54 263.13 335.897 266.074 335.897 269.607C335.897 272.315 335.071 274.73 333.418 276.849C331.824 278.969 329.58 280.617 326.688 281.795C323.795 282.973 320.518 283.561 316.857 283.561C313.197 283.561 309.684 282.943 306.319 281.707C302.954 280.47 300.238 278.733 298.172 276.496C297.581 275.789 297.286 275.112 297.286 274.465C297.286 273.464 297.758 272.58 298.703 271.815C299.412 271.285 300.149 271.02 300.917 271.02C301.921 271.02 302.777 271.432 303.485 272.257C304.902 273.905 306.762 275.171 309.065 276.055C311.426 276.938 314.024 277.379 316.857 277.379C320.99 277.379 324.09 276.673 326.156 275.259C328.222 273.846 329.285 271.992 329.344 269.695C329.344 267.576 328.311 265.809 326.245 264.396C324.178 262.983 320.902 261.923 316.415 261.217C310.629 260.274 306.289 258.655 303.397 256.359C300.563 254.004 299.146 251.177 299.146 247.88C299.146 243.582 300.799 240.255 304.105 237.9C307.47 235.545 311.662 234.367 316.68 234.367Z" fill="#2196F3"/>
<path d="M369.025 276.319C369.97 276.319 370.737 276.643 371.327 277.291C371.916 277.939 372.211 278.763 372.211 279.764C372.211 280.706 371.856 281.501 371.149 282.149C370.439 282.796 369.554 283.12 368.492 283.12H366.632C363.503 283.12 360.699 282.384 358.219 280.912C355.74 279.381 353.791 277.35 352.374 274.818C351.017 272.227 350.338 269.313 350.338 266.074V242.493H344.582C343.637 242.493 342.869 242.228 342.279 241.698C341.748 241.109 341.482 240.403 341.482 239.578C341.482 238.695 341.748 237.989 342.279 237.459C342.869 236.87 343.637 236.575 344.582 236.575H350.338V222.886C350.338 221.885 350.633 221.061 351.223 220.413C351.873 219.765 352.699 219.441 353.703 219.441C354.707 219.441 355.533 219.765 356.182 220.413C356.832 221.061 357.156 221.885 357.156 222.886V236.575H367.164C368.108 236.575 368.847 236.87 369.377 237.459C369.97 237.989 370.265 238.695 370.265 239.578C370.265 240.403 369.97 241.109 369.377 241.698C368.847 242.228 368.108 242.493 367.164 242.493H357.156V266.074C357.156 269.077 358.042 271.55 359.814 273.493C361.585 275.377 363.857 276.319 366.632 276.319H369.025Z" fill="#2196F3"/>
<path d="M405.187 234.279C407.666 234.279 409.616 234.603 411.03 235.251C412.508 235.898 413.247 236.811 413.247 237.989C413.247 238.342 413.215 238.607 413.158 238.784C412.92 239.608 412.536 240.167 412.007 240.462C411.535 240.756 410.856 240.903 409.968 240.903C409.439 240.903 408.522 240.845 407.222 240.727C406.75 240.668 406.043 240.638 405.098 240.638C400.672 240.638 397.038 241.816 394.207 244.171C391.432 246.526 390.043 249.588 390.043 253.357V279.764C390.043 280.824 389.749 281.648 389.159 282.237C388.566 282.826 387.742 283.12 386.679 283.12C385.614 283.12 384.79 282.826 384.2 282.237C383.607 281.648 383.312 280.824 383.312 279.764V238.166C383.312 237.105 383.607 236.281 384.2 235.693C384.79 235.104 385.614 234.809 386.679 234.809C387.742 234.809 388.566 235.104 389.159 235.693C389.749 236.281 390.043 237.105 390.043 238.166V242.052C391.756 239.578 393.94 237.665 396.597 236.311C399.254 234.957 402.118 234.279 405.187 234.279Z" fill="#2196F3"/>
<path d="M425.289 238.253C425.289 237.252 425.616 236.428 426.266 235.78C426.912 235.132 427.74 234.808 428.745 234.808C429.747 234.808 430.543 235.132 431.136 235.78C431.782 236.428 432.109 237.252 432.109 238.253V279.675C432.109 280.676 431.782 281.5 431.136 282.148C430.543 282.796 429.747 283.119 428.745 283.119C427.74 283.119 426.912 282.796 426.266 282.148C425.616 281.5 425.289 280.676 425.289 279.675V238.253ZM428.745 215.996C430.042 215.996 431.164 216.438 432.109 217.321C433.054 218.204 433.526 219.352 433.526 220.765C433.526 222.119 433.054 223.268 432.109 224.21C431.164 225.152 430.013 225.623 428.656 225.623C427.296 225.623 426.145 225.152 425.2 224.21C424.315 223.268 423.871 222.119 423.871 220.765C423.871 219.352 424.344 218.204 425.289 217.321C426.234 216.438 427.385 215.996 428.745 215.996Z" fill="#2196F3"/>
<path d="M485.336 277.82C485.986 278.645 486.309 279.44 486.309 280.205C486.309 281.029 485.986 281.736 485.336 282.325C484.746 282.855 484.068 283.12 483.3 283.12C482.59 283.12 482 283.002 481.528 282.766C481.055 282.531 480.611 282.119 480.199 281.53L465.674 263.071L450.62 282.06C450.091 282.766 449.291 283.12 448.229 283.12C447.284 283.12 446.517 282.825 445.927 282.236C445.394 281.648 445.132 280.941 445.132 280.117C445.132 279.175 445.426 278.38 446.016 277.732L461.337 258.655L446.812 240.284C446.222 239.637 445.927 238.842 445.927 237.9C445.927 237.017 446.194 236.281 446.723 235.692C447.256 235.103 448.023 234.809 449.028 234.809C450.03 234.809 450.886 235.162 451.597 235.868L465.852 254.151L479.933 236.398C480.761 235.339 481.734 234.809 482.856 234.809C483.801 234.809 484.54 235.103 485.069 235.692C485.659 236.281 485.954 236.987 485.954 237.811C485.954 238.695 485.631 239.548 484.981 240.373L470.281 258.567L485.336 277.82Z" fill="#2196F3"/>
<path d="M95.7408 231.953C95.4503 232.05 95.1448 232.126 94.8613 232.253C91.2934 233.722 88.3362 236.386 86.488 239.796C84.6397 243.206 84.0131 247.155 84.714 250.976C84.8031 251.48 84.893 251.984 85.0195 252.48C85.1463 252.976 85.3029 253.48 85.4745 253.984C86.6922 257.353 88.8871 260.274 91.7748 262.368C92.0202 262.533 92.2593 262.699 92.52 262.857C93.0642 263.197 93.6265 263.505 94.2052 263.781C94.6077 263.985 95.0176 264.18 95.4428 264.353C97.436 265.153 99.5602 265.569 101.706 265.579C101.907 265.579 102.093 265.526 102.287 265.518V265.459C104.553 265.355 106.782 264.846 108.87 263.954C112.753 262.246 115.871 259.15 117.624 255.261C119.377 251.372 119.641 246.967 118.365 242.893C117.089 238.82 114.364 235.367 110.714 233.2C107.064 231.032 102.747 230.304 98.5965 231.155C98.3503 231.208 98.1116 231.246 97.8509 231.306C97.1347 231.475 96.4296 231.691 95.7408 231.953Z" fill="#FFD833"/>
<mask id="mask0_580_3079" style="mask-type:alpha" maskUnits="userSpaceOnUse" x="12" y="158" width="113" height="181">
<path d="M86.2063 231.117C80.1472 221.473 76.6181 211.467 75.6188 201.101C66.8064 193.882 52.7548 190.338 33.4642 190.468C32.9886 198.351 34.1622 206.247 36.9088 213.643H36.7149C38.7151 218.404 41.5036 222.788 44.961 226.606C44.9665 226.68 44.9864 226.752 45.0197 226.817C45.0529 226.883 45.0989 226.942 45.1548 226.99C46.3757 228.341 47.7242 229.57 49.1809 230.659C57.6658 237.216 67.7186 241.276 79.3394 242.84C80.4115 238.327 82.8039 234.243 86.2063 231.117Z" fill="url(#paint0_linear_580_3079)"/>
<path d="M49.1731 276.662H48.9788C43.4867 285.038 39.9726 297.021 38.4367 312.611C46.8865 313.899 54.6801 313.513 61.818 311.453C67.9676 309.596 73.6519 306.432 78.4887 302.175V301.979L79.6371 300.821H79.846C87.4854 292.67 92.58 282.529 95.1302 270.398C91.6373 269.348 88.4427 267.474 85.8102 264.932C74.0953 272.636 61.8827 276.546 49.1731 276.662Z" fill="url(#paint1_linear_580_3079)"/>
<path d="M45.3421 235.501C44.07 234.474 42.8554 233.377 41.7037 232.215C32.7568 234.661 22.8556 240.266 12 249.028C16.4316 255.588 22.2596 261.068 29.0587 265.066C34.6819 268.306 40.9839 270.161 47.4521 270.48H49.1745C60.6067 270.37 71.5416 266.909 81.9798 260.096C79.981 256.748 78.862 252.941 78.7288 249.035C65.9496 247.316 54.8208 242.804 45.3421 235.501Z" fill="url(#paint2_linear_580_3079)"/>
<path d="M113.858 228.606C119.897 219.222 123.312 209.537 124.103 199.551V199.168C124.234 197.949 124.299 196.725 124.296 195.499C124.217 188.361 122.303 181.366 118.742 175.197C115.178 168.77 109.889 163.038 102.876 158H102.831C95.803 163.013 90.5016 168.748 86.9281 175.204C83.367 181.373 81.4534 188.368 81.3738 195.506C81.371 196.732 81.436 197.957 81.5674 199.176V199.559C82.3279 209.189 85.5388 218.54 91.2004 227.614C94.7356 225.768 98.6885 224.89 102.665 225.065C106.642 225.241 110.504 226.464 113.866 228.614L113.858 228.606Z" fill="url(#paint3_linear_580_3079)"/>
<path d="M121.991 296.956V296.76C120.798 287.266 117.49 277.955 112.067 268.826C108.838 270.499 105.259 271.371 101.629 271.367C101.48 271.367 101.331 271.367 101.181 271.367C98.3883 284.697 92.742 295.868 84.2422 304.881C84.216 304.877 84.189 304.88 84.1641 304.888C84.1385 304.897 84.1154 304.911 84.097 304.93C84.0781 304.949 84.0639 304.972 84.0554 304.997C84.0469 305.023 84.0447 305.05 84.0483 305.077C84.0522 305.103 84.0497 305.13 84.0412 305.156C84.033 305.181 84.0185 305.204 83.9996 305.223C83.9808 305.242 83.9581 305.256 83.9328 305.265C83.908 305.273 83.881 305.276 83.8543 305.272C85.7733 315.192 91.713 326.221 101.674 338.357C108.074 333.746 113.431 327.818 117.391 320.965C120.198 315.968 121.96 310.442 122.565 304.731C122.326 304.392 122.193 303.989 122.184 303.572C122.444 301.369 122.378 299.14 121.991 296.956Z" fill="url(#paint4_linear_580_3079)"/>
</mask>
<g mask="url(#mask0_580_3079)">
<path d="M126.388 158H12V338.32H126.388V158Z" fill="url(#paint5_radial_580_3079)"/>
</g>
<defs>
<linearGradient id="paint0_linear_580_3079" x1="34.1388" y1="191.12" x2="78.2985" y2="235.399" gradientUnits="userSpaceOnUse">
<stop stop-color="#FF4081"/>
<stop offset="1" stop-color="#FFA73F"/>
</linearGradient>
<linearGradient id="paint1_linear_580_3079" x1="96.8679" y1="264.719" x2="37.9556" y2="312.714" gradientUnits="userSpaceOnUse">
<stop stop-color="#FFA73F"/>
<stop offset="1" stop-color="#FF4081"/>
</linearGradient>
<linearGradient id="paint2_linear_580_3079" x1="82.1084" y1="259.2" x2="12.0064" y2="249.951" gradientUnits="userSpaceOnUse">
<stop stop-color="#FFA73F"/>
<stop offset="1" stop-color="#FF4081"/>
</linearGradient>
<linearGradient id="paint3_linear_580_3079" x1="102.835" y1="158" x2="102.835" y2="228.614" gradientUnits="userSpaceOnUse">
<stop stop-color="#FF4081"/>
<stop offset="1" stop-color="#FFA73F"/>
</linearGradient>
<linearGradient id="paint4_linear_580_3079" x1="103.209" y1="268.826" x2="103.209" y2="338.357" gradientUnits="userSpaceOnUse">
<stop stop-color="#FFA73F"/>
<stop offset="1" stop-color="#FF4081"/>
</linearGradient>
<radialGradient id="paint5_radial_580_3079" cx="0" cy="0" r="1" gradientUnits="userSpaceOnUse" gradientTransform="translate(96.8683 250) rotate(-180) scale(125.457 79.1575)">
<stop stop-color="#FFA73F"/>
<stop offset="0.756906" stop-color="#FF4081"/>
</radialGradient>
</defs>
</svg>
