<?xml version="1.0" encoding="utf-8"?>
<!-- Generator: Adobe Illustrator 26.1.0, SVG Export Plug-In . SVG Version: 6.00 Build 0)  -->
<svg version="1.1" id="Слой_1" xmlns="http://www.w3.org/2000/svg" xmlns:xlink="http://www.w3.org/1999/xlink" x="0px" y="0px"
	 viewBox="0 0 740.8 109.9" style="enable-background:new 0 0 740.8 109.9;" xml:space="preserve">
<style type="text/css">
	.st0{fill:#0075FF;}
	.st1{fill:#FFFFFF;}
</style>
<g>
	<path class="st0" d="M19.5,0L0,109.9h109.9L129.4,0H19.5z"/>
	<g>
		<polygon class="st1" points="104.9,19.9 100.5,44.5 34.1,44.5 38.6,19.9 		"/>
		<polygon class="st1" points="98.4,56.5 94,81 53.7,81 23.1,105.4 32.1,56.5 		"/>
	</g>
	<g>
		<path class="st1" d="M133.1,89.1l8.4-47.8l3.9-21.4h62.4l-3.5,19.7h-35.8l-3.5,18.2h17.7l-1.6,10.2h-17.7c0,0-3.4,20.7-3.5,21
			H133.1z"/>
		<path class="st1" d="M209.9,73.9 M265.3,19.9h-34.1l-46.9,69.2h31.5l7.8-11.4l-13.8-3.9l46.7,0l5.1,15.2h26.9L265.3,19.9z
			 M232.5,63.7l13.9-20.3l6.8,20.3H232.5z"/>
		<path class="st1" d="M521.6,73.9 M577,19.9h-34.1l-46.9,69.2h31.5l7.8-11.4l-13.8-3.9l46.7,0l5.1,15.2h26.9L577,19.9z M544.2,63.7
			l13.9-20.3l6.8,20.3H544.2z"/>
		<polygon class="st1" points="294.3,89.1 306.9,19.9 333.6,19.9 320.9,89.1 		"/>
		<path class="st1" d="M388.9,89.1l-10.4-21.1H363l-3.8,21.1h-26.6l12.6-69.2h47.1c4.2,0,8,0.9,11.4,2.6c3.5,1.8,6.4,4.1,8.8,6.9
			c2.5,2.9,4.3,6,5.5,9.5c1.2,3.5,1.7,6.9,1.4,10.3c-0.3,3.3-1.5,6.5-3.6,9.4c-2,2.8-5.1,5.1-9.2,6.8l-2.4,1l11.2,22.8H388.9z
			 M364.6,57.9h16.6c4.8,0,8.3-1.2,10.4-3.5c2.1-2.3,3.1-5,2.8-7.9c-0.3-2.9-1.6-5.6-4-7.9c-2.4-2.4-5.6-3.6-9.4-3.6h-12.2
			L364.6,57.9z"/>
		<path class="st1" d="M665,89.1l-10.4-21.1h-15.5l-3.8,21.1h-26.6l12.6-69.2h47.1c4.2,0,8,0.9,11.4,2.6c3.5,1.8,6.4,4.1,8.8,6.9
			c2.5,2.9,4.3,6,5.5,9.5c1.2,3.5,1.7,6.9,1.4,10.3c-0.3,3.3-1.5,6.5-3.6,9.4c-2,2.8-5.1,5.1-9.2,6.8l-2.4,1l11.2,22.8H665z
			 M640.7,57.9h16.6c4.8,0,8.3-1.2,10.4-3.5c2.1-2.3,3.1-5,2.8-7.9c-0.3-2.9-1.6-5.6-4-7.9c-2.4-2.4-5.6-3.6-9.4-3.6h-12.2
			L640.7,57.9z"/>
		<path class="st1" d="M424.1,89.1l12.6-69.2h47.1c4.9,0,9.3,1.2,13,3.5c3.9,2.4,7,5.3,9.4,9c2.4,3.6,3.9,7.5,4.5,11.7
			c0.6,4.1,0.1,7.9-1.5,11.5c-1.6,3.5-4.6,6.5-8.8,8.9c-4.3,2.4-10.4,3.6-18.1,3.6h-27.7l-3.8,21.1H424.1z M455.5,57.9h16.6
			c4.8,0,8.3-1.2,10.4-3.5c2.1-2.3,3.1-5,2.8-7.9c-0.3-2.9-1.6-5.6-4-7.9c-2.4-2.4-5.6-3.6-9.4-3.6h-12.2L455.5,57.9z"/>
		<polygon class="st1" points="701.5,89.1 714.1,19.9 740.8,19.9 728.1,89.1 		"/>
	</g>
</g>
</svg>
