<svg width="140" height="80" viewBox="0 0 140 80" fill="none" xmlns="http://www.w3.org/2000/svg">
<path d="M18.8841 71.9208C28.917 71.6284 38.9273 70.8033 48.8726 69.449C63.9817 67.6452 78.7811 63.8258 92.8761 58.0925C99.3903 55.5626 105.347 51.784 110.412 46.9692C113.19 44.4107 115.071 41.0256 115.776 37.315C116.036 35.2191 115.84 33.0915 115.2 31.0787C114.56 29.066 113.491 27.2157 112.068 25.6554C108.348 21.3695 103.793 17.8863 98.6826 15.4183C92.3808 12.1384 85.7733 9.48288 78.9545 7.4897C78.4911 7.36359 78.0387 7.19981 77.602 7C79.5582 7.00498 81.507 7.23979 83.4085 7.69958C94.9812 9.55295 106.313 12.6812 117.198 17.0273C123.667 19.4367 129.607 23.0798 134.688 27.7541C137.579 30.297 139.451 33.8012 139.958 37.6182C140.224 40.983 139.189 44.3218 137.066 46.9459C133.808 51.0315 129.693 54.3512 125.01 56.67C116.366 61.1967 107.172 64.583 97.6565 66.7439C81.8214 70.5387 65.6553 72.7879 49.3857 73.4599C36.8197 74.0681 24.2288 73.9358 11.6784 73.0635C9.02003 72.8769 6.36164 72.5971 3.72656 72.3639C3.93644 71.7109 4.47278 72.0374 4.84589 72.0374H17.5549C18.0011 72.0977 18.4552 72.0579 18.8841 71.9208Z" fill="white"/>
<path d="M100.943 47.4356C98.5294 47.4674 96.1606 46.7837 94.1352 45.4709C92.1099 44.158 90.5188 42.2747 89.5625 40.0586C88.6062 37.8425 88.3276 35.3928 88.762 33.0186C89.1963 30.6444 90.324 28.4519 92.0028 26.7179C93.6817 24.9838 95.8365 23.7858 98.1955 23.2749C100.554 22.764 103.012 22.9632 105.258 23.8473C107.504 24.7314 109.437 26.2608 110.815 28.2427C112.193 30.2245 112.953 32.5699 112.999 34.9831C113.036 38.2288 111.791 41.358 109.533 43.69C107.275 46.022 104.188 47.3682 100.943 47.4356Z" fill="white"/>
<path d="M52.2064 38.9477C50.0844 38.9477 48.009 38.9477 45.9336 38.9477C45.1407 38.9477 45.0708 38.7145 45.2573 38.0383C46.1434 34.6803 46.1201 34.6803 49.5947 34.6803H57.4766C57.943 34.6803 58.3861 34.6803 58.1995 35.3799C57.5419 39.1624 55.4275 42.5362 52.3102 44.7772C49.1928 47.0182 45.3211 47.9476 41.5262 47.366C39.2043 47.0348 37.0984 45.8238 35.6444 43.9834C34.1903 42.143 33.4993 39.8142 33.7143 37.4786C34.0372 33.5707 35.7559 29.9097 38.5563 27.165C41.3567 24.4203 45.0515 22.7753 48.9651 22.531C50.7667 22.4091 52.5695 22.7502 54.2021 23.5216C55.8347 24.293 57.2429 25.4692 58.2928 26.9383C58.6659 27.4513 58.7358 27.7778 58.0829 28.0343C57.8578 28.1364 57.6397 28.2533 57.43 28.3841C56.6592 28.9907 55.7921 29.4636 54.8648 29.7832C53.8854 29.9465 53.559 28.6639 52.8361 28.1043C51.5128 27.2249 49.9593 26.7558 48.3704 26.7558C46.7816 26.7558 45.2281 27.2249 43.9048 28.1043C42.1972 29.0261 40.771 30.3929 39.7775 32.0598C38.7839 33.7267 38.2601 35.6314 38.2615 37.5719C38.2585 39.0493 38.8188 40.4724 39.8282 41.5512C40.8377 42.63 42.2205 43.2834 43.6949 43.3784C45.3845 43.4986 47.0744 43.1482 48.5769 42.3661C50.0794 41.5839 51.3358 40.4007 52.2064 38.9477Z" fill="white"/>
<path d="M20.1453 42.725C22.6404 42.725 25.0423 42.725 27.4442 42.725C28.307 42.725 28.5868 42.725 28.2837 43.7977C27.3043 46.9925 27.3276 46.9925 24.0163 46.9925C21.148 46.9925 18.2797 46.9925 15.4115 46.9925C14.572 46.9925 14.2455 46.9925 14.5487 45.9198C16.694 38.7375 18.8005 31.5473 20.8682 24.3495C20.89 24.1527 20.9527 23.9626 21.0523 23.7914C21.1518 23.6202 21.286 23.4717 21.4462 23.3554C21.6065 23.239 21.7892 23.1574 21.9828 23.1158C22.1764 23.0742 22.3766 23.0734 22.5705 23.1136C26.1383 23.1136 29.7062 23.1136 33.274 23.1136C34.0669 23.1136 34.2301 23.2535 33.9969 24.0696C33.0641 27.4043 33.0641 27.4043 29.6129 27.4043C28.2604 27.4043 26.9079 27.4043 25.5553 27.4043C24.8791 27.4043 24.506 27.5442 24.3194 28.2438C24.0629 29.3165 23.7364 30.3892 23.3867 31.4152C23.0369 32.4413 23.3867 32.3013 24.1096 32.3013C26.2316 32.3013 28.377 32.3013 30.499 32.3013C31.2919 32.3013 31.5717 32.3013 31.3152 33.3041C30.4058 36.5221 30.4291 36.5454 27.1177 36.5454C25.6486 36.5454 24.1562 36.5454 22.6871 36.5454C22.5797 36.5254 22.4695 36.5271 22.3628 36.5505C22.2561 36.5738 22.1552 36.6184 22.0661 36.6814C21.9769 36.7445 21.9013 36.8248 21.8438 36.9176C21.7862 37.0104 21.7479 37.1138 21.731 37.2217C21.3112 38.8074 20.7982 40.3698 20.3552 41.8856C20.2852 42.1187 20.2386 42.3519 20.1453 42.725Z" fill="white"/>
<path d="M67.411 27.4043H62.3508C62.7239 26.0751 63.097 24.8625 63.4235 23.6499C63.5634 23.1835 63.8898 23.1602 64.2863 23.1602H78.1146L77.0186 27.0545C76.902 27.4975 76.5289 27.4043 76.2024 27.4043C75.1064 27.4043 73.8705 27.4043 72.8911 27.4043C71.9117 27.4043 71.7951 27.8007 71.6085 28.4769C69.9528 34.1202 68.2739 39.7635 66.6648 45.43C66.3384 46.596 65.9186 47.0624 64.6127 47.0158C61.6978 46.8992 61.6978 47.0158 62.514 44.1941L67.411 27.4043Z" fill="white"/>
<path d="M18.8829 71.9209C18.4865 72.2707 18.0201 72.1308 17.577 72.1308H4.91468C4.49493 72.1308 4.00523 71.9442 3.63212 72.3406C2.54428 72.3662 1.45895 72.2246 0.414062 71.9209H18.8829Z" fill="white"/>
</svg>
