<svg width="216" height="100" viewBox="0 0 216 100" fill="none" xmlns="http://www.w3.org/2000/svg">
<g clip-path="url(#clip0_73_109)">
<path d="M35.1331 32.6185H59.2799V38.1426H41.4086V46.1996H53.3062V51.7237H41.4086V60.745H59.8336V66.2691H35.1355V32.6185H35.1331Z" fill="white"/>
<path d="M58.0942 42.3474H64.5194L70.1414 59.0204L75.3619 42.3474H81.5875L72.9525 66.2667H67.1783L58.0918 42.3474H58.0942Z" fill="white"/>
<path d="M80.6014 54.3574C80.6014 47.0607 85.6223 41.8916 92.8007 41.8916C99.9792 41.8916 104.95 47.0607 104.95 54.3574C104.95 61.6541 99.8295 66.7224 92.651 66.7224C85.4726 66.7224 80.6038 61.6541 80.6038 54.3574H80.6014ZM98.6247 54.5085V54.307C98.6247 49.7472 96.4149 47.0103 92.8007 47.0103C89.1865 47.0103 86.9268 49.7472 86.9268 54.307V54.5085C86.9268 58.9676 89.0844 61.6037 92.7009 61.6037C96.3175 61.6037 98.6247 58.9676 98.6247 54.5085Z" fill="white"/>
<path d="M107.778 32.1603H114.053V66.2667H107.778V32.1603Z" fill="white"/>
<path d="M117.634 56.6889V42.3474H123.86V56.3339C123.86 59.5265 125.366 61.4022 128.177 61.4022C131.44 61.4022 132.797 58.615 132.797 54.5109V42.3474H139.022V66.2667H132.797V62.8726C131.542 65.3552 129.382 66.7248 126.322 66.7248C120.949 66.7248 117.637 62.8726 117.637 56.6913L117.634 56.6889Z" fill="white"/>
<path d="M144.711 59.9319V47.4158H141.346V42.3474H144.711V37.838L150.784 34.3911V42.3474H155.454V47.4158H150.735V59.3251C150.735 60.4908 151.286 60.9969 152.441 61.0473H155.202V66.2668H150.383C145.816 66.0125 144.811 63.8849 144.711 59.9319Z" fill="white"/>
<path d="M158.284 32.7192H164.759V38.8501H158.284V32.7192ZM158.383 42.3474H164.659V66.2667H158.383V42.3474Z" fill="white"/>
<path d="M167.487 54.3574C167.487 47.0607 172.507 41.8916 179.686 41.8916C186.864 41.8916 191.835 47.0607 191.835 54.3574C191.835 61.6541 186.715 66.7224 179.536 66.7224C172.358 66.7224 167.489 61.6541 167.489 54.3574H167.487ZM185.51 54.5085V54.307C185.51 49.7472 183.3 47.0103 179.686 47.0103C176.072 47.0103 173.812 49.7472 173.812 54.307V54.5085C173.812 58.9676 175.97 61.6037 179.584 61.6037C183.198 61.6037 185.508 58.9676 185.508 54.5085H185.51Z" fill="white"/>
<path d="M194.613 42.3474H200.839V46.25C202.093 43.4627 204.403 41.8412 207.768 41.8412C212.938 41.8412 216.001 45.3385 216.001 51.9252V66.2667H209.776V52.2802C209.776 48.9365 208.521 47.2118 205.61 47.2118C202.699 47.2118 200.841 49.6441 200.841 54.1031V66.2643H194.615V42.3474H194.613Z" fill="white"/>
<path d="M26.2842 70.6778C25.2149 70.6778 24.35 69.8023 24.35 68.7229C24.35 67.6411 25.2173 66.768 26.2842 66.768C27.3511 66.768 28.2184 67.6411 28.2208 68.7229C28.2208 69.8023 27.3558 70.6778 26.2842 70.6778ZM26.2842 66.2667C24.944 66.2667 23.8557 67.3677 23.8557 68.7229C23.8557 70.0782 24.944 71.1768 26.2842 71.1768C27.6243 71.1768 28.715 70.0782 28.715 68.7229C28.715 67.3677 27.6267 66.2667 26.2842 66.2667Z" fill="white"/>
<path d="M25.3551 68.325H24.9916V68.0827H26.0228V68.325H25.6617V69.3636H25.3551V68.325Z" fill="white"/>
<path d="M26.1512 68.0801H26.6359L26.8688 68.8981L27.1112 68.0801H27.584V69.361H27.2822V68.3272L26.9615 69.361H26.7215L26.4126 68.332V69.361H26.1512V68.0801Z" fill="white"/>
<path d="M-0.00140381 31.2439C0.245915 31.8057 0.488644 32.3747 0.732775 32.947C3.78885 40.1109 7.0647 47.7899 22.3157 48.272C23.8412 45.4871 24.7133 42.2849 24.7133 38.8764C24.7133 38.0057 24.6515 37.1518 24.5422 36.3123C18.8726 28.7637 8.55049 26.6337 -0.00140381 31.2439Z" fill="white"/>
<path d="M28.715 48.0945C26.3721 48.2816 24.2499 48.3343 22.3157 48.272C23.8412 45.4871 24.7133 42.2849 24.7133 38.8764C24.7133 38.0057 24.6515 37.1518 24.5422 36.3123C26.8424 39.3778 28.3776 43.3332 28.715 48.0945Z" fill="white"/>
<path d="M5.45219 58.3224C12.1554 58.3224 18.0555 54.866 21.5057 49.6225C23.6514 49.5146 26.0395 49.5554 28.715 49.7664C27.5483 66.2667 12.0223 73.1005 -0.00115967 66.6194C0.249083 66.0516 0.49452 65.4765 0.741378 64.898C1.69702 62.6586 2.67397 60.3693 4.0336 58.2649C4.50171 58.2984 4.97457 58.3224 5.45219 58.3224Z" fill="white"/>
<path d="M4.0336 58.2649C6.93968 53.765 11.5946 50.1166 21.5057 49.6225C18.0555 54.866 12.1554 58.3224 5.45219 58.3224C4.97457 58.3224 4.50171 58.2984 4.0336 58.2649Z" fill="white"/>
</g>
<defs>
<clipPath id="clip0_73_109">
<rect width="216" height="42.3529" fill="white" transform="translate(0 28.8235)"/>
</clipPath>
</defs>
</svg>
