<svg width="160" height="80" viewBox="0 0 160 80" fill="none" xmlns="http://www.w3.org/2000/svg">
<path d="M137.351 23.3766H159.998V29.96H152.098V57.8733H145.251V29.96H137.351V23.3766ZM108.121 23.3766H114.178L127.608 44.4433V23.3766H134.454V57.8733H128.398L114.968 36.8066V57.8733H108.121V23.3766ZM86.5276 23.3766H104.434V29.96H88.6343V37.3333H102.064V43.9166H88.6343V51.2899H104.434V57.8733H86.5276V69.4599H85.2109V11H86.5276V23.3766Z" fill="#F1F1F1"/>
<path d="M32.02 23.377H54.6666V29.9603H39.1299V37.3336H52.5599V43.9169H39.1299V51.2902H54.6666V57.8736H32.02V23.377ZM2 23.377H8.31999L21.4866 44.4436V23.377H28.3333V57.8736H22.2766L8.84666 36.8069V57.8736H2V23.377ZM57.8266 23.377H80.4732V29.9603H72.5732V57.8736H65.7266V29.9603H57.8266V23.377Z" fill="white"/>
</svg>
