<svg width="200" height="80" viewBox="0 0 200 80" fill="none" xmlns="http://www.w3.org/2000/svg">
<path d="M5.60819 56.4533V27.3414L30.1834 39.6281L16.264 46.5884V39.6281C16.264 38.8844 15.9685 38.1712 15.4427 37.6453C14.9168 37.1195 14.2036 36.824 13.4599 36.824C12.7162 36.824 12.003 37.1195 11.4771 37.6453C10.9512 38.1712 10.6558 38.8844 10.6558 39.6281V51.1257C10.6558 51.6036 10.778 52.0736 11.0108 52.4911C11.2435 52.9085 11.5791 53.2595 11.9857 53.5108C12.3923 53.7621 12.8564 53.9053 13.3338 53.9267C13.8113 53.9482 14.2863 53.8473 14.7138 53.6336L37.7072 42.1366C38.1729 41.9037 38.5645 41.5457 38.8383 41.1028C39.112 40.6598 39.257 40.1494 39.257 39.6287C39.257 39.108 39.112 38.5976 38.8383 38.1546C38.5645 37.7117 38.1729 37.3537 37.7072 37.1208L4.05805 20.2956C3.63049 20.0821 3.15544 19.9813 2.67798 20.0029C2.20052 20.0245 1.7365 20.1677 1.32996 20.419C0.923419 20.6703 0.587842 21.0213 0.355079 21.4388C0.122316 21.8562 8.94029e-05 22.3262 0 22.8041V56.4533C2.21637e-08 57.197 0.295431 57.9102 0.8213 58.4361C1.34717 58.9619 2.0604 59.2574 2.80409 59.2574C3.54779 59.2574 4.26102 58.9619 4.78689 58.4361C5.31276 57.9102 5.60819 57.197 5.60819 56.4533Z" fill="white"/>
<path d="M68.9523 33.509C68.635 32.7559 68.1025 32.1131 67.4215 31.6612C66.7405 31.2094 65.9413 30.9685 65.1241 30.9688H53.6929C53.2336 30.9688 52.793 31.1512 52.4682 31.476C52.1434 31.8009 51.9609 32.2414 51.9609 32.7007V46.5567C51.9609 47.016 52.1434 47.4566 52.4682 47.7814C52.793 48.1062 53.2336 48.2887 53.6929 48.2887C54.1523 48.2887 54.5928 48.1062 54.9176 47.7814C55.2424 47.4566 55.4249 47.016 55.4249 46.5567V42.5154H65.1241C65.67 42.5157 66.2108 42.4085 66.7152 42.1997C67.2197 41.9909 67.6781 41.6848 68.0642 41.2987C68.4503 40.9126 68.7564 40.4543 68.9652 39.9498C69.174 39.4453 69.2812 38.9046 69.2808 38.3586V35.1255C69.2809 34.5701 69.1692 34.0203 68.9523 33.509ZM65.8169 38.3586C65.8176 38.451 65.7993 38.5426 65.7632 38.6276C65.7101 38.752 65.6223 38.8584 65.5103 38.9342C65.3962 39.0109 65.2615 39.0512 65.1241 39.0496H55.4249V34.4327H65.1241C65.2164 34.4325 65.3079 34.4508 65.3931 34.4864C65.486 34.5258 65.5692 34.5849 65.6371 34.6595C65.7049 34.7342 65.7558 34.8227 65.7863 34.9188C65.8069 34.9858 65.8172 35.0555 65.8169 35.1255V38.3586Z" fill="white"/>
<path d="M151.853 38.608C151.167 38.1437 150.357 37.896 149.529 37.8967H139.368C139.275 37.8975 139.184 37.8792 139.099 37.843C138.974 37.7898 138.868 37.7021 138.792 37.5902C138.716 37.4758 138.676 37.3413 138.677 37.2039V35.1255C138.676 35.0332 138.695 34.9417 138.73 34.8565C138.784 34.7322 138.871 34.6258 138.983 34.5499C139.039 34.5127 139.099 34.4837 139.163 34.4639C139.229 34.4431 139.298 34.4325 139.368 34.4327H151.376C151.836 34.4327 152.276 34.2503 152.601 33.9254C152.926 33.6006 153.108 33.1601 153.108 32.7007C153.108 32.2414 152.926 31.8009 152.601 31.476C152.276 31.1512 151.836 30.9688 151.376 30.9688H139.368C138.822 30.9684 138.281 31.0756 137.777 31.2844C137.272 31.4932 136.814 31.7993 136.428 32.1854C136.042 32.5715 135.735 33.0299 135.527 33.5344C135.318 34.0388 135.211 34.5795 135.211 35.1255V37.2039C135.211 37.7499 135.318 38.2906 135.527 38.7951C135.735 39.2996 136.042 39.758 136.428 40.144C136.814 40.5301 137.272 40.8363 137.777 41.0451C138.281 41.2538 138.822 41.3611 139.368 41.3607H149.529C149.621 41.3605 149.713 41.3787 149.798 41.4144C149.891 41.4538 149.974 41.5129 150.042 41.5875C150.11 41.6622 150.161 41.7506 150.191 41.8468C150.212 41.9138 150.222 41.9834 150.222 42.0535V44.1319C150.222 44.2243 150.204 44.3159 150.168 44.4009C150.115 44.5253 150.027 44.6317 149.915 44.7075C149.801 44.7842 149.666 44.8245 149.529 44.8229H137.52C137.061 44.8229 136.62 45.0054 136.296 45.3302C135.971 45.655 135.788 46.0956 135.788 46.5549C135.788 47.0143 135.971 47.4548 136.296 47.7796C136.62 48.1045 137.061 48.2869 137.52 48.2869H149.529C150.075 48.2873 150.615 48.18 151.12 47.9713C151.624 47.7625 152.083 47.4564 152.469 47.0703C152.855 46.6842 153.161 46.2258 153.37 45.7213C153.579 45.2168 153.686 44.6761 153.686 44.1301V42.0535C153.686 41.3731 153.519 40.7031 153.2 40.1023C152.88 39.5015 152.418 38.9883 151.854 38.608H151.853Z" fill="white"/>
<path d="M131.039 31.3975C130.693 31.0951 130.241 30.9425 129.783 30.9731C129.325 31.0038 128.897 31.2152 128.595 31.5609L121.816 39.3081L115.036 31.5609C114.887 31.3869 114.705 31.2441 114.501 31.1409C114.296 31.0377 114.073 30.9761 113.845 30.9596C113.616 30.9431 113.387 30.9721 113.17 31.0449C112.953 31.1177 112.752 31.2328 112.58 31.3837C112.407 31.5345 112.267 31.718 112.166 31.9236C112.065 32.1293 112.005 32.3528 111.992 32.5815C111.978 32.8101 112.009 33.0392 112.084 33.2556C112.159 33.472 112.277 33.6713 112.43 33.842L120.084 42.5891V46.5571C120.084 47.0164 120.267 47.457 120.592 47.7818C120.916 48.1066 121.357 48.2891 121.816 48.2891C122.276 48.2891 122.716 48.1066 123.041 47.7818C123.366 47.457 123.548 47.0164 123.548 46.5571V42.5891L131.203 33.842C131.352 33.6707 131.467 33.4716 131.54 33.2561C131.613 33.0405 131.642 32.8128 131.627 32.5858C131.612 32.3588 131.552 32.137 131.451 31.9331C131.35 31.7292 131.21 31.5472 131.039 31.3975Z" fill="white"/>
<path d="M176.396 33.509C176.078 32.7553 175.545 32.1122 174.863 31.6603C174.182 31.2084 173.382 30.9678 172.564 30.9688H162.403C161.857 30.9684 161.316 31.0756 160.812 31.2844C160.307 31.4932 159.849 31.7993 159.463 32.1854C159.077 32.5715 158.771 33.0299 158.562 33.5344C158.353 34.0388 158.246 34.5795 158.246 35.1255V44.1319C158.246 44.6779 158.353 45.2186 158.562 45.7231C158.771 46.2276 159.077 46.6859 159.463 47.072C159.849 47.4581 160.307 47.7643 160.812 47.973C161.316 48.1818 161.857 48.289 162.403 48.2887H172.564C173.11 48.289 173.651 48.1818 174.155 47.973C174.66 47.7643 175.118 47.4581 175.504 47.072C175.89 46.6859 176.196 46.2276 176.405 45.7231C176.614 45.2186 176.721 44.6779 176.721 44.1319V35.1255C176.721 34.5704 176.611 34.0207 176.396 33.509ZM173.257 44.1319C173.257 44.2242 173.239 44.3157 173.203 44.4009C173.164 44.4938 173.105 44.577 173.03 44.6449C172.955 44.7128 172.867 44.7637 172.771 44.7941C172.704 44.8147 172.634 44.825 172.564 44.8247H162.403C162.31 44.8254 162.219 44.8071 162.134 44.771C162.041 44.7316 161.958 44.6725 161.89 44.5979C161.822 44.5232 161.771 44.4348 161.741 44.3386C161.72 44.2716 161.71 44.2019 161.71 44.1319V35.1255C161.709 35.0331 161.728 34.9415 161.764 34.8565C161.817 34.7321 161.905 34.6257 162.017 34.5499C162.131 34.4738 162.265 34.4336 162.403 34.4345H172.564C172.656 34.4343 172.748 34.4525 172.833 34.4882C172.957 34.5414 173.064 34.6291 173.139 34.741C173.177 34.7964 173.206 34.8569 173.226 34.9206C173.246 34.9869 173.257 35.056 173.257 35.1255V44.1319Z" fill="white"/>
<path d="M198.266 30.9688C197.807 30.9688 197.366 31.1512 197.041 31.476C196.717 31.8009 196.534 32.2414 196.534 32.7007V42.6008L184.43 31.4306C184.183 31.2024 183.875 31.0511 183.543 30.9952C183.211 30.9394 182.87 30.9814 182.562 31.1161C182.254 31.2508 181.991 31.4724 181.807 31.7538C181.622 32.0352 181.524 32.3643 181.523 32.7007V46.5567C181.523 47.016 181.706 47.4566 182.031 47.7814C182.356 48.1062 182.796 48.2887 183.255 48.2887C183.715 48.2887 184.155 48.1062 184.48 47.7814C184.805 47.4566 184.987 47.016 184.987 46.5567V36.6566L197.091 47.8297C197.338 48.0579 197.647 48.2092 197.979 48.2651C198.31 48.3209 198.651 48.2789 198.959 48.1442C199.268 48.0095 199.53 47.7879 199.715 47.5065C199.899 47.2251 199.998 46.896 199.998 46.5596V32.7007C199.998 32.4733 199.953 32.2481 199.866 32.0379C199.779 31.8278 199.652 31.6369 199.491 31.476C199.33 31.3152 199.139 31.1876 198.929 31.1006C198.719 31.0135 198.493 30.9687 198.266 30.9688Z" fill="white"/>
<path d="M87.6372 44.8247H77.2452V32.7007C77.2452 32.2414 77.0628 31.8009 76.7379 31.476C76.4131 31.1512 75.9726 30.9688 75.5132 30.9688C75.0539 30.9688 74.6133 31.1512 74.2885 31.476C73.9637 31.8009 73.7812 32.2414 73.7812 32.7007V46.5567C73.7812 47.016 73.9637 47.4566 74.2885 47.7814C74.6133 48.1062 75.0539 48.2887 75.5132 48.2887H87.6372C88.0965 48.2887 88.5371 48.1062 88.8619 47.7814C89.1867 47.4566 89.3692 47.016 89.3692 46.5567C89.3692 46.0973 89.1867 45.6568 88.8619 45.332C88.5371 45.0072 88.0965 44.8247 87.6372 44.8247Z" fill="white"/>
<path d="M111.195 48.2885C110.892 48.2887 110.594 48.2094 110.331 48.0586C110.069 47.9077 109.85 47.6906 109.697 47.4288L103.112 36.138L96.5251 47.4294C96.2936 47.8262 95.914 48.1148 95.4698 48.2317C95.0256 48.3487 94.5531 48.2844 94.1563 48.0529C93.7595 47.8215 93.4709 47.4419 93.3539 46.9977C93.237 46.5534 93.3013 46.0809 93.5328 45.6841L101.615 31.8282C101.768 31.5667 101.986 31.3497 102.249 31.1989C102.511 31.0481 102.809 30.9688 103.112 30.9688C103.414 30.9688 103.712 31.0481 103.974 31.1989C104.237 31.3497 104.455 31.5667 104.608 31.8282L112.69 45.6841C112.844 45.9472 112.925 46.2462 112.926 46.5507C112.927 46.8553 112.848 47.1547 112.696 47.4189C112.544 47.683 112.326 47.9025 112.062 48.0551C111.799 48.2078 111.5 48.2883 111.195 48.2885Z" fill="white"/>
</svg>
