<svg width="180" height="80" viewBox="0 0 180 80" fill="none" xmlns="http://www.w3.org/2000/svg">
<path fill-rule="evenodd" clip-rule="evenodd" d="M131.832 19.7856C131.488 19.4227 131.193 19.4456 130.906 19.4456C124.767 19.4456 118.628 19.4481 112.489 19.4463C110.344 19.4456 108.405 20.1442 106.601 21.2338C102.998 23.4113 100.566 26.4288 99.3606 30.562C97.5234 36.8595 95.4843 43.1006 93.4236 49.3296C91.4599 55.2653 95.1294 60.0115 100.923 59.6018C104.034 59.3814 107.175 59.5799 110.302 59.5524C111.275 59.5437 112.24 59.5316 113.214 59.2438C118.234 57.7604 121.344 54.34 123.015 49.5409C124.245 46.0087 125.314 42.4191 126.392 38.8361C126.802 37.474 127.383 36.1515 127.58 34.739C126.986 34.3557 126.393 34.5298 125.834 34.5263C122.765 34.5068 119.695 34.4943 116.626 34.5294C115.539 34.5419 114.26 34.1012 113.411 34.747C112.577 35.3813 112.594 36.7104 112.261 37.7412C111.558 39.918 110.879 42.1031 110.17 44.348C111.873 44.7022 113.492 44.2469 115.098 44.6713C114.621 46.1717 114.162 47.5327 113.764 48.9118C113.621 49.4089 113.471 49.7467 112.872 49.7436C109.814 49.7293 106.755 49.7373 103.494 49.7373C104.152 47.6238 104.743 45.7094 105.344 43.7989C106.728 39.4064 108.113 35.015 109.504 30.6249C109.932 29.2733 109.942 29.2729 111.411 29.2677C112.743 29.2628 114.075 29.2667 115.408 29.2663C119.519 29.2663 123.631 29.2754 127.743 29.2538C128.198 29.2514 128.772 29.503 129.009 28.7273C129.93 25.709 130.905 22.7075 131.832 19.7856ZM137.526 59.5142C139.782 59.5427 142.109 59.9066 144.279 59.3713C149.917 57.9811 153.951 54.6004 155.784 48.9532C157.739 42.9335 159.615 36.8876 161.503 30.8463C161.983 29.3122 162.389 27.7795 162.465 26.1306C162.674 21.5529 158.825 18.6949 155.213 18.7888C151.858 18.8756 148.499 18.802 145.142 18.812C144.509 18.8138 143.881 18.8141 143.25 18.9817C137.52 20.5026 133.596 23.9625 131.747 29.6532C130.966 32.0597 130.216 34.477 129.466 36.8939C128.12 41.2353 126.688 45.5534 125.47 49.9305C123.877 55.6566 127.807 59.6598 132.32 59.5229C134.054 59.4704 135.791 59.5142 137.526 59.5142ZM96.2284 26.0754C98.881 20.8915 102.921 17.3471 108.502 15.5624C109.071 15.3802 109.802 15.626 110.224 15H157.144C157.248 15.2565 157.483 15.2534 157.705 15.3041C162.219 16.3284 165.094 19.0738 166.365 23.525C166.603 24.3588 166.449 25.2635 166.872 26.0549C166.66 28.2852 166.304 30.4724 165.562 32.6123C164.624 35.3194 163.918 38.1062 163.018 40.8276C161.651 44.9601 160.623 49.2045 158.942 53.2334C156.324 57.882 152.624 61.2742 147.545 63.0732C145.789 63.695 143.996 64.0189 142.121 64.0165C128.06 63.9974 113.999 63.9511 99.9376 64.0356C95.0036 64.0655 89.3884 60.6288 88.6092 54.4304C88.5592 54.0318 88.4313 53.6432 88.3398 53.2497C88.4038 50.5186 89.1865 47.9512 90.0269 45.3782C92.1248 38.9539 93.9616 32.4455 96.2284 26.0754Z" fill="white"/>
<path fill-rule="evenodd" clip-rule="evenodd" d="M158.945 53.2336C160.626 49.2043 161.654 44.9602 163.021 40.8274C163.921 38.1064 164.627 35.3196 165.565 32.6125C166.307 30.4725 166.663 28.2853 166.875 26.0547C168.435 26.0658 169.996 26.0596 171.556 26.0929C173.647 26.1374 175.283 27.0581 176.63 28.6492C177.237 29.3656 177.383 30.3064 178.001 30.988V35.1587C176.964 36.7199 176.855 38.5926 176.296 40.3127C175.71 42.1141 175.312 43.976 174.771 45.793C173.318 50.6794 168.653 53.4084 164.661 53.2437C162.759 53.1655 160.851 53.2325 158.945 53.2336Z" fill="white"/>
<path fill-rule="evenodd" clip-rule="evenodd" d="M69.7829 35.8951H74.5452C74.9706 35.8951 75.3081 35.8263 75.4638 35.3203C75.8808 33.9651 76.3497 32.626 76.8279 31.1892C75.1388 30.9626 73.5915 31.1322 72.0535 31.0668C71.4442 31.0411 71.2562 31.4603 71.1064 31.8916C70.6765 33.1296 70.2809 34.3798 69.7829 35.8951ZM80.3762 46.9771C81.5047 46.9771 82.538 46.9396 83.5668 46.9893C84.3457 47.0268 84.6842 46.7116 84.8799 45.9643C85.4481 43.7949 86.1315 41.6556 86.7008 39.4865C87.3246 37.1116 86.2218 35.6081 83.8136 35.5149C82.4855 35.4635 81.1513 35.4537 79.8243 35.5163C77.2468 35.6376 75.4137 37.0334 74.5243 39.3374C73.5977 41.7369 73.042 44.28 72.3069 46.8197C73.3586 47.1068 74.3464 46.8645 75.3015 46.9924C76.2753 47.1224 76.6121 46.6219 76.8293 45.8017C77.286 44.0774 77.7851 42.3643 78.2912 40.6539C78.4344 40.1708 78.5508 39.6088 79.265 39.6471C80.2896 39.702 81.3285 39.5153 82.4421 39.7958C81.7595 42.1686 81.0939 44.4823 80.3762 46.9771ZM32.8584 30.672C31.6767 30.672 30.8054 30.754 29.957 30.6508C28.9351 30.5264 28.5407 30.9782 28.263 31.8878C27.1362 35.5775 25.8978 39.2338 24.8061 42.9336C24.4266 44.2196 23.7926 45.4614 23.7238 46.9761C27.589 46.9761 31.343 46.965 35.097 46.9865C35.7637 46.99 35.991 46.6396 36.1574 46.0881C36.6068 44.5991 37.1449 43.1352 37.5456 41.6341C38.459 38.2106 39.2028 38.7879 35.1846 38.7107C34.4822 38.6975 34.1371 39.0201 33.949 39.6575C33.7051 40.4854 33.3874 41.2914 33.1497 42.121C33.0242 42.5572 32.866 42.8658 32.3499 42.8342C31.3267 42.7716 30.2854 42.9843 29.1228 42.6496C30.3518 38.709 31.5634 34.824 32.8584 30.672ZM58.5108 38.7611C59.3272 36.0985 60.1287 33.4845 60.991 30.6724C59.721 30.6724 58.6884 30.7043 57.6589 30.6605C57.0142 30.6334 56.7661 30.9101 56.5881 31.5013C55.8085 34.091 54.9851 36.6671 54.1621 39.2428C53.7829 40.4287 54.1663 41.3998 54.981 42.2347C55.4752 42.741 56.2308 42.7664 56.8759 43.0824C56.757 44.4166 55.9767 45.558 55.8954 46.9198C56.1686 46.9413 56.3963 46.9848 56.6208 46.9726C57.7086 46.9118 59.0113 47.389 59.8215 46.7599C60.4651 46.2601 60.5718 45.0277 60.8405 44.0986C61.055 43.358 61.4182 42.9715 62.2238 42.7835C64.4027 42.2746 65.8763 40.9108 66.57 38.7549C67.1168 37.0567 67.6937 35.3679 68.1949 33.6565C69.1788 30.2939 69.7645 30.7036 65.8857 30.6654C65.2086 30.6584 64.8461 30.8858 64.6532 31.5784C64.2525 33.018 63.7513 34.4295 63.2964 35.8545C62.2659 39.0826 62.2669 39.0833 58.8386 38.913C58.785 38.9102 58.7336 38.8661 58.5108 38.7611ZM9.92183 46.9768C10.8891 46.9768 11.9189 46.9577 12.948 46.9841C13.5514 47.0001 13.8315 46.8037 14.0328 46.1753C14.3466 45.1959 14.3487 43.9307 15.1238 43.3194C15.9753 42.6476 17.2401 43.1352 18.3224 43.0754C21.6148 42.8929 23.5834 41.4495 24.6299 38.3607C25.0171 37.2176 25.3869 36.0655 25.6879 34.8976C26.3555 32.3083 25.1307 30.7144 22.4504 30.6779C20.3129 30.6487 18.1712 30.7419 16.0382 30.6432C14.9357 30.5921 14.559 31.0394 14.2646 32.0125C12.8983 36.5242 11.4584 41.0133 10.0341 45.5073C9.89646 45.941 9.66568 46.3484 9.92183 46.9768ZM37.5477 46.8426C38.6846 47.0887 39.7245 46.8979 40.7463 46.9882C41.447 47.0498 41.8098 46.7522 41.9999 46.1186C42.2314 45.3478 42.5102 44.5908 42.7239 43.8154C42.8431 43.3823 43.0002 43.05 43.5115 43.0771C44.534 43.1303 45.5756 42.9065 46.6076 43.2346C46.6361 44.5445 45.7432 45.6154 45.8176 46.9771C46.8429 46.9771 47.8226 46.9441 48.7993 46.9879C49.5549 47.0213 49.9087 46.7522 50.1363 45.9918C51.2579 42.2433 52.4761 38.5237 53.6109 34.7795C54.3144 32.4578 53.075 30.7617 50.6573 30.6803C49.3867 30.6372 48.1104 30.6185 46.8415 30.6838C44.2834 30.8152 42.3503 32.1401 41.5047 34.4601C40.03 38.5057 38.8643 42.6642 37.5477 46.8426ZM96.2305 26.0752C93.9634 32.4453 92.1269 38.9537 90.0287 45.378C89.1882 47.951 88.4055 50.5184 88.3416 53.2495C73.5133 53.2429 58.6849 53.2343 43.8566 53.2304C31.8665 53.2273 19.8763 53.2325 7.88617 53.2242C7.07913 53.2235 6.25263 53.2377 5.46854 53.0806C1.00064 52.1846 -0.625244 48.5283 0.211335 44.7743C1.07607 40.8934 2.2039 37.0696 3.26952 33.2356C4.55237 28.6183 9.21802 26.0234 12.9943 26.0352C40.7397 26.1231 68.4851 26.0779 96.2305 26.0752Z" fill="white"/>
<path fill-rule="evenodd" clip-rule="evenodd" d="M151.627 29.3242C148.901 29.3242 146.422 29.3187 143.943 29.3263C142.346 29.3312 142.353 29.3416 141.896 30.8066C140.869 34.0987 139.829 37.3862 138.807 40.6797C137.888 43.6395 136.986 46.6042 136.023 49.7392C138.078 49.7392 139.977 49.7625 141.876 49.7302C142.967 49.7118 144.246 50.1379 145.097 49.5387C145.95 48.9378 145.914 47.5791 146.241 46.5483C148.026 40.9108 149.774 35.2619 151.627 29.3242Z" fill="white"/>
<path fill-rule="evenodd" clip-rule="evenodd" d="M151.627 29.3242C149.774 35.2619 148.026 40.9108 146.241 46.5483C145.914 47.5791 145.95 48.9378 145.097 49.5387C144.246 50.1379 142.967 49.7118 141.876 49.7302C139.977 49.7625 138.078 49.7392 136.023 49.7392C136.986 46.6042 137.888 43.6395 138.807 40.6797C139.829 37.3862 140.869 34.0987 141.896 30.8066C142.353 29.3416 142.346 29.3312 143.943 29.3263C146.422 29.3187 148.901 29.3242 151.627 29.3242Z" fill="white"/>
<path fill-rule="evenodd" clip-rule="evenodd" d="M44.3828 38.8582C44.4367 38.5454 44.4648 38.3157 44.5166 38.0911C45.3118 34.6499 45.6427 34.4344 49.3585 34.9753C49.2952 35.1991 49.2372 35.4163 49.1725 35.6318C48.1379 39.0768 48.1375 39.0768 44.3828 38.8582Z" fill="white"/>
<path fill-rule="evenodd" clip-rule="evenodd" d="M16.5597 38.9367C16.3762 38.3473 16.5576 38.1015 16.6417 37.8329C17.6938 34.4636 17.6924 34.4633 21.429 34.9599C21.1242 36.0057 20.8086 37.0418 20.524 38.0866C20.3679 38.6597 20.0708 38.9649 19.4361 38.9447C18.4713 38.9141 17.5047 38.9367 16.5597 38.9367Z" fill="white"/>
</svg>
