<svg width="200" height="80" viewBox="0 0 200 80" fill="none" xmlns="http://www.w3.org/2000/svg">
<path d="M187.317 48.7075L186.82 45.6373L185.741 48.7075H184.911L183.832 45.6373L183.252 48.7075H182.422L183.252 43.8118H184.164L185.326 47.2139L186.488 43.8118H187.4L188.23 48.7075H187.317ZM181.177 48.7075H180.181V44.7246H179.269V43.8118H182.007V44.7246H181.094L181.177 48.7075ZM168.067 57.586H165.411V51.6116L161.263 43.8118H164.167L166.822 48.7904L169.477 43.8118H172.299L168.15 51.6946L168.067 57.586ZM160.433 57.586L159.354 54.7648H153.629L152.467 57.586H149.646L155.039 43.7288H157.778L163.171 57.586H160.433ZM156.45 47.3798L154.542 52.1095H158.275L156.45 47.3798ZM141.514 43.7288H144.169V55.0137H148.069V57.503H141.514V43.7288ZM136.95 51.5287C136.038 51.6946 135.042 51.7776 134.129 51.7776V57.669H131.474V43.7288H134.295C135.457 43.6459 136.536 43.8118 137.614 44.1437C138.278 44.3927 138.859 44.8905 139.274 45.4714C139.689 46.1352 139.855 46.9649 139.855 47.7117C139.855 48.6245 139.606 49.4543 139.108 50.1181C138.444 50.8649 137.78 51.3627 136.95 51.5287ZM136.536 46.5501C136.038 46.3011 135.374 46.2181 134.793 46.3011H134.046V49.2053H134.876C135.374 49.2053 135.789 49.2053 136.287 49.0394C136.536 48.9564 136.784 48.7904 136.867 48.5415C137.033 48.2926 137.116 48.0436 137.116 47.7117C137.199 47.2968 136.95 46.799 136.536 46.5501ZM115.874 45.7203C113.219 45.6373 111.062 47.7947 110.979 50.367C110.979 50.45 110.979 50.45 110.979 50.5329C110.979 51.4457 111.145 52.2755 111.559 53.0223C111.974 53.7691 112.555 54.3499 113.302 54.7648C114.049 55.1797 114.962 55.4286 115.874 55.4286C116.621 55.4286 117.368 55.2626 118.032 55.0137C118.861 54.5988 119.608 54.018 120.189 53.3542L122.015 55.2626C121.185 56.1754 120.106 56.8392 119.027 57.42C118.032 57.8349 116.87 58.0009 115.791 58.0009C113.717 58.0839 111.808 57.3371 110.315 55.9264C107.411 53.1052 107.328 48.4585 110.149 45.5543C110.647 44.9735 111.311 44.5586 111.974 44.2267C113.136 43.5629 114.547 43.231 115.874 43.231C118.281 43.231 120.521 44.2267 122.098 46.0522L120.189 47.7947C119.11 46.4671 117.534 45.7203 115.874 45.7203ZM103.345 43.4799H106.083V57.586H103.345V43.4799ZM98.5321 57.586H95.7939V46.0522H93.2216V43.3969H101.187V46.0522H98.5321V57.586ZM90.7323 57.586L89.5706 54.6818H83.6792L82.5175 57.586H79.6963L85.2558 43.4799H87.994L93.5535 57.586H90.7323ZM86.6664 47.2139L84.7579 52.1095H88.5749L86.6664 47.2139ZM73.8879 48.6245L70.8178 57.586H68.4115L65.4243 48.6245L63.8477 57.586H61.1095L63.5988 43.3969H66.2541L69.5732 53.2712L72.9752 43.3969H75.6305L78.0368 57.503H75.3815L73.8879 48.6245ZM56.3798 57.0881C55.2181 57.669 53.9735 58.0009 52.7288 58.0009C51.3182 58.0009 49.9906 57.669 48.7459 57.0881C47.5843 56.4243 46.5885 55.5116 46.0077 54.3499C45.3439 53.1882 45.012 51.8606 45.012 50.5329C45.012 48.7075 45.6758 46.9649 46.9205 45.6373C48.414 43.9778 50.4885 43.148 52.7288 43.231C53.9735 43.231 55.1352 43.4799 56.2139 43.8948C57.2096 44.3927 58.2053 45.0565 58.9521 45.8862L57.0436 47.7947C55.9649 46.5501 54.3884 45.8862 52.8118 45.8862C51.4842 45.8862 50.2395 46.3841 49.2438 47.2968C48.3311 48.1266 47.7502 49.3713 47.8332 50.6989C47.8332 52.0265 48.3311 53.2712 49.3268 54.1839C50.3225 55.0967 51.6501 55.6775 52.9778 55.5945C53.8075 55.5945 54.6373 55.4286 55.3841 55.0137C56.0479 54.5988 56.6287 53.935 56.9607 53.1882H52.8118V50.6989H60.0308V51.2797C59.8649 53.5201 58.5372 55.8435 56.3798 57.0881ZM40.5312 54.6818H34.7228L33.5612 57.586H30.657L36.2164 43.4799H38.9547L44.5141 57.586H41.6929L40.5312 54.6818ZM37.627 47.2139L35.7186 52.1095H39.5355L37.627 47.2139ZM26.0103 57.586L22.7742 51.6116H22.5252V57.586H19.787V43.4799H22.6912C23.8529 43.3969 25.0145 43.5629 26.0932 43.8948C26.7571 44.1437 27.3379 44.6416 27.7528 45.3054C28.1677 45.9692 28.4166 46.799 28.3336 47.6288C28.3336 48.4585 28.0847 49.2883 27.6698 49.9521C27.1719 50.6159 26.4252 51.1138 25.5954 51.3627L28.9974 57.669L26.0103 57.586ZM25.5954 47.5458C25.5954 46.9649 25.2635 46.4671 24.6826 46.2181C24.1848 46.1352 23.6869 46.0522 23.1891 46.0522H22.4423V48.9564H23.272C23.8529 49.0394 24.5167 48.8734 25.0975 48.6245C25.5124 48.3755 25.6784 47.9607 25.5954 47.5458ZM14.6424 51.3627C13.7297 51.5287 12.734 51.6116 11.7382 51.6116V57.586H9V43.4799H11.9042C13.0659 43.3969 14.2275 43.5629 15.3062 43.8948C15.9701 44.1437 16.5509 44.6416 16.9658 45.3054C17.3807 45.9692 17.6296 46.799 17.5466 47.6288C17.5466 48.5415 17.2977 49.3713 16.7998 50.0351C16.219 50.6989 15.4722 51.1968 14.6424 51.3627ZM14.2275 46.3011C13.6467 46.0522 13.0659 45.9692 12.568 46.0522H11.7382V48.9564H12.568C13.0659 48.9564 13.5637 48.9564 13.9786 48.7904C14.2275 48.7075 14.4765 48.5415 14.6424 48.2926C14.8084 48.0436 14.8914 47.7947 14.8914 47.4628C14.8914 47.0479 14.6424 46.5501 14.2275 46.3011ZM151.305 77.9983C136.287 78.1643 124.006 66.0496 123.84 51.0308C123.674 36.012 135.789 23.7314 150.808 23.5654C165.826 23.3995 178.107 35.5141 178.273 50.5329C178.273 50.6159 178.273 50.6989 178.273 50.7819C178.356 65.7177 166.241 77.9153 151.305 77.9983ZM151.305 26.4696C137.863 26.5526 127.076 37.5885 127.159 51.0308C127.242 64.3071 138.029 75.0941 151.305 75.1771C164.748 75.1771 175.618 64.3071 175.618 50.8649C175.618 37.3396 164.748 26.4696 151.305 26.4696ZM159.437 41.3225C150.144 41.9033 146.41 30.9504 154.79 30.3696C163.752 29.7887 168.482 40.7417 159.437 41.3225ZM149.563 20.7442C144.916 20.9102 140.352 22.3208 136.37 24.7271C135.789 22.9016 133.216 15.9316 126.578 12.0317C131.308 12.2806 135.623 15.0188 137.863 19.2506C137.863 19.2506 135.291 8.29769 135.955 0C141.182 6.4722 145.165 17.0103 145.165 17.0103C144.667 12.2806 146.659 7.5509 150.476 4.64671C147.074 11.6997 148.982 19.0017 149.563 20.7442Z" fill="white"/>
</svg>
