<svg width="180" height="80" viewBox="0 0 180 80" fill="none" xmlns="http://www.w3.org/2000/svg">
<g clip-path="url(#clip0_1534_40532)">
<path d="M61.2735 50.1141H54.9574L50.1452 42.595H50.07V50.1141H44.957V30.5645H52.6265C54.6567 30.5645 56.3109 31.0908 57.5891 32.0683C58.8673 33.0458 59.4689 34.5496 59.4689 36.5797C59.4689 38.0084 59.0929 39.2114 58.341 40.1889C57.5891 41.2416 56.5364 41.8431 55.183 42.0687L61.2735 50.1141ZM50.1452 39.3618H50.6715C51.1227 39.3618 51.5738 39.3618 51.9498 39.2866C52.3257 39.2114 52.7017 39.1362 53.0776 38.9106C53.3784 38.7603 53.6792 38.4595 53.9047 38.1587C54.1303 37.858 54.2055 37.4068 54.2055 36.8805C54.2055 36.3542 54.1303 35.9782 53.9047 35.6022C53.6792 35.3015 53.4536 35.0007 53.0776 34.8503C52.7769 34.7 52.4009 34.5496 51.9498 34.4744C51.5738 34.3992 51.1227 34.3992 50.6715 34.3992H50.1452V39.3618Z" fill="white"/>
<path d="M67.7409 34.8484V38.0816H73.4554V42.3675H67.7409V45.8262H73.7562V50.1121H62.7031V30.5625H73.8314V34.8484H67.7409Z" fill="white"/>
<path d="M76.9111 30.5645H84.1295C85.4829 30.5645 86.7611 30.79 87.9642 31.3164C89.1672 31.8427 90.2199 32.5194 91.1222 33.4217C92.0245 34.324 92.7764 35.3767 93.2275 36.5797C93.7539 37.7828 93.9795 39.061 93.9795 40.4145C93.9795 41.7679 93.7539 43.0461 93.2275 44.2492C92.7012 45.4522 92.0245 46.5049 91.047 47.4072C90.1447 48.3095 89.0921 48.9862 87.889 49.5126C86.6859 50.0389 85.4077 50.2645 84.0543 50.2645H76.8359V30.5645H76.9111ZM82.0241 45.8282H83.152C83.9039 45.8282 84.6558 45.753 85.3325 45.5274C86.0092 45.3019 86.6108 45.0011 87.1371 44.55C87.6634 44.0988 88.0394 43.4973 88.3401 42.8206C88.6409 42.1438 88.7913 41.3167 88.7913 40.4145C88.7913 38.6851 88.2649 37.3316 87.2875 36.4293C86.31 35.5271 84.8814 35.0007 83.2272 35.0007H82.0241V45.8282Z" fill="white"/>
<path d="M113.156 50.1141H108.043V34.8503H103.832V30.5645H117.291V34.8503H113.08V50.1141H113.156Z" fill="white"/>
<path d="M124.285 50.1121H119.172V30.5625H124.285V50.1121Z" fill="white"/>
<path d="M147.144 39.2104C147.144 40.9398 146.994 42.3684 146.693 43.4963C146.468 44.6993 145.941 45.8272 145.114 46.955C144.212 48.2333 143.009 49.2108 141.655 49.8123C140.302 50.4138 138.723 50.7898 137.069 50.7898C135.565 50.7898 134.136 50.5642 132.858 50.0379C131.58 49.5115 130.452 48.8348 129.55 47.9325C128.647 47.0302 127.895 45.9024 127.369 44.6241C126.843 43.3459 126.617 41.9924 126.617 40.4134C126.617 38.8344 126.843 37.4058 127.369 36.1276C127.895 34.8493 128.572 33.7215 129.55 32.744C130.527 31.8417 131.58 31.0898 132.933 30.6386C134.211 30.1123 135.64 29.8867 137.219 29.8867C139.249 29.8867 141.054 30.3379 142.558 31.2402C144.061 32.1424 145.265 33.4959 146.092 35.3757L141.279 37.4058C140.903 36.4283 140.377 35.6764 139.625 35.1501C138.873 34.6237 138.046 34.323 136.994 34.323C136.166 34.323 135.49 34.4734 134.813 34.8493C134.136 35.2253 133.61 35.6764 133.234 36.2779C132.783 36.8795 132.482 37.5562 132.257 38.3081C132.031 39.06 131.956 39.8119 131.956 40.5638C131.956 41.3157 132.031 42.0676 132.257 42.8196C132.482 43.5715 132.783 44.2482 133.234 44.7745C133.685 45.376 134.211 45.8272 134.888 46.128C135.565 46.4287 136.242 46.6543 137.069 46.6543C138.197 46.6543 139.174 46.3535 139.926 45.752C140.678 45.1505 141.129 44.3234 141.204 43.2707H137.069V39.2856H147.144V39.2104Z" fill="white"/>
<path d="M154.511 34.8503V38.0835H160.226V42.3694H154.511V45.8282H160.527V50.1141H149.398V30.5645H160.527V34.8503H154.511Z" fill="white"/>
<path d="M180 50.1121H173.684L168.872 42.593H168.797V50.1121H163.684V30.5625H171.278C173.308 30.5625 174.962 31.0888 176.24 32.0663C177.519 33.0438 178.12 34.5476 178.12 36.5778C178.12 38.0064 177.744 39.2095 176.992 40.1869C176.24 41.2396 175.188 41.8411 173.834 42.0667L180 50.1121ZM168.797 39.3598H169.323C169.774 39.3598 170.225 39.3598 170.601 39.2846C170.977 39.2094 171.353 39.1343 171.729 38.9087C172.03 38.7583 172.331 38.4575 172.556 38.1568C172.782 37.856 172.857 37.4049 172.857 36.8785C172.857 36.3522 172.782 35.9762 172.556 35.6003C172.331 35.2995 172.105 34.9988 171.729 34.8484C171.428 34.698 171.052 34.5476 170.601 34.4724C170.225 34.3972 169.774 34.3972 169.323 34.3972H168.797V39.3598Z" fill="white"/>
<path d="M13.1521 23.1959C12.0994 23.7975 10.2948 24.399 9.31737 24.2486C8.33988 24.0982 7.13683 24.0982 6.23454 23.7975C5.93378 23.7223 5.55782 23.7223 5.25706 23.9478C5.93378 24.3238 8.26469 25.3013 8.26469 25.3765C7.96393 25.3013 6.68568 25.0005 6.30973 24.8501C6.5353 25.8276 6.76088 26.6547 6.98645 27.4818C7.06164 27.4818 7.13683 27.4066 7.28721 27.4066C7.06164 28.3841 6.76088 29.2864 6.76088 30.2639C6.68568 31.3917 7.06164 32.3692 8.03912 33.1963C9.09179 34.0986 9.91889 35.2265 11.0468 36.0536C12.0994 36.8055 13.4529 37.2566 15.1823 36.8807C14.7311 36.4295 14.5055 36.1288 14.2048 35.9784C13.6784 35.6776 13.0769 35.452 12.4754 35.3017C10.1445 34.5497 8.94141 32.7452 7.88874 30.715C7.66317 30.1887 7.73836 29.512 7.66317 28.8352L7.96393 28.7601C8.1895 29.136 8.33988 29.5872 8.56546 29.9631C8.86622 30.6398 9.31737 30.9406 10.1445 30.9406C12.0994 30.9406 13.904 31.2414 14.9567 33.2715C15.483 34.3242 16.1597 35.3017 17.2876 35.7528C17.3628 35.6776 17.2124 34.6249 17.062 34.0234C17.9643 33.6475 17.5884 33.1211 17.1372 32.5948C16.4605 31.9181 15.859 31.1662 15.1071 30.4894C15.7838 30.2639 16.6861 29.7375 16.6861 29.6623C15.4078 29.6623 14.2048 29.6623 12.9265 29.6623C12.9265 29.5872 12.9265 29.5872 12.9265 29.512C14.0544 29.2864 16.2349 28.5345 16.2349 28.3089C14.5055 27.2562 12.4002 27.933 10.5204 27.6322C10.5204 27.4818 10.5204 27.4818 10.5204 27.4066C11.7235 27.1059 12.9265 26.8051 14.1296 26.5043C15.3326 26.2036 17.5884 25.2261 17.5884 25.1509H12.6258C14.2048 24.4742 15.5582 23.4215 17.3628 23.4967C19.2426 23.4967 21.1223 23.6471 23.0021 23.4967C25.1075 23.3463 26.7617 24.3238 28.5662 25.2261H23.6036C23.6036 25.3765 25.9345 26.2788 27.1376 26.6547C28.3407 26.9555 29.4685 27.2562 30.6716 27.7074C28.7918 28.1585 26.7617 27.4066 24.8067 28.6849C25.8594 29.8127 27.2128 29.2864 28.4158 29.8127H24.4307C24.4307 29.9631 25.2578 30.4894 25.9346 30.715C25.2578 31.4669 24.5811 32.2188 23.9044 32.8955C23.3781 33.4219 23.3781 33.873 24.0548 34.1738C23.8292 34.7001 23.6788 35.828 23.754 35.9032C24.2052 35.5272 24.6563 35.3017 25.0323 34.8505C25.4834 34.3994 25.8594 33.873 26.0849 33.3467C27.0624 31.3917 28.867 31.091 30.6716 31.091C31.7994 31.091 32.3258 30.715 32.6265 29.7375C32.7017 29.4368 32.9273 29.136 33.1529 28.7601C33.604 29.8879 33.2281 30.715 32.7769 31.6173C31.6491 34.0234 29.6189 35.2265 27.2128 35.9784C26.7617 36.1288 26.4609 36.5047 26.0849 36.8055C26.0849 36.8055 27.2128 37.2566 27.7391 37.1062C29.7693 36.6551 31.4987 35.7528 32.6265 33.873C32.7769 33.7226 33.0025 33.4219 33.1529 33.2715C34.2807 32.1436 34.7319 30.4143 34.2055 28.8352C34.0552 28.3841 33.2281 27.7826 34.4311 27.4818L34.5063 27.3314C34.5815 26.6547 34.6567 25.9028 34.7319 25.0757C34.2055 25.3765 33.604 25.4517 32.9273 25.8276C33.6792 25.0757 34.7319 24.4742 36.0101 24.1734C36.0101 24.0982 34.7319 23.7223 34.0552 23.7975C32.8521 23.8726 31.7242 24.2486 30.5964 24.2486C29.7693 24.2486 28.3407 23.3463 28.4158 23.3463C31.9498 23.8726 35.183 22.8952 38.341 21.3913C39.6193 20.7898 40.9727 21.5417 40.8975 22.9704C40.8223 24.8501 40.5216 26.7299 38.9426 28.0833C38.6418 28.3089 38.341 29.136 38.341 29.136L39.6945 28.4593C39.8449 30.1887 38.4914 30.5646 37.2884 31.0158C37.0628 30.5646 36.9124 30.0383 36.6117 29.5872C36.4613 29.3616 36.0853 29.2864 35.7846 29.136C35.6342 29.4368 35.4086 29.7375 35.4086 29.9631C35.4086 30.5646 35.4838 31.2414 35.559 31.8429C35.7846 33.4971 35.183 34.7753 33.9048 35.7528C33.7544 35.9032 33.604 36.0536 33.5288 36.2039C34.1304 36.6551 34.1304 36.6551 35.3334 36.1288C35.1078 36.7303 35.0326 37.5574 34.5815 37.8581C34.1304 38.1589 33.3033 38.0085 32.6265 38.0837C32.7017 38.8356 32.7017 38.8356 34.8823 39.4372C34.8071 39.8131 34.6567 40.1891 34.5815 40.4898C34.3559 41.2417 33.5288 41.5425 32.8521 41.1665C31.5739 40.3394 30.3708 39.6627 28.7166 40.1891C30.07 40.941 31.3483 41.6929 32.7769 42.52C32.2506 43.2719 32.3258 43.723 33.1529 44.099C33.9048 44.4749 34.0552 46.6555 33.3784 47.3322C32.6265 48.0089 32.4762 52.2948 32.6265 52.37C32.8521 51.9188 33.2281 50.7158 33.3784 50.1143C33.8296 48.7608 34.1304 48.1593 34.8071 47.3322C35.3334 46.7307 36.3861 44.7005 34.9575 43.7982C34.9575 43.7982 35.183 43.2719 35.559 42.3696C36.0853 40.941 36.5365 40.4146 37.2884 39.0612C37.3636 38.986 38.1907 37.783 38.2659 37.6326C38.2659 37.6326 36.3109 43.6478 36.3109 43.9486C36.6868 43.8734 38.1907 43.1967 38.341 43.2719C37.8147 44.9261 37.4388 46.6555 36.8372 48.3097C36.2357 49.9639 35.3334 51.4677 34.5815 53.0467C34.7319 53.1971 36.0101 52.5956 36.4613 52.1444C38.6418 49.6631 39.4689 46.5803 39.7697 43.3471C39.8449 42.0688 39.7697 40.7906 39.9952 39.4372C40.296 40.6402 40.8223 41.8433 40.8975 43.0463C41.0479 44.7757 41.4239 45.678 40.8975 48.3097C40.8975 48.5353 40.8223 48.7608 40.672 48.9864C39.093 51.4677 37.4388 54.0242 35.8597 56.5055L35.559 55.2272C35.4086 55.2272 35.4086 55.2272 35.2582 55.1521C35.1078 55.4528 34.8823 55.7536 34.8071 56.0543C34.2807 57.2574 33.0025 59.6635 32.8521 59.6635C32.8521 58.4604 32.8521 57.2574 32.8521 56.0543C32.8521 55.528 32.8521 54.8513 32.1002 54.8513C31.3483 54.8513 31.3483 55.528 31.3483 56.0543C31.3483 56.7311 31.3483 57.3326 31.3483 58.1597C30.3708 57.6334 29.6941 57.107 28.867 56.8062C27.9647 56.4303 27.1376 56.2799 26.3105 57.1822C25.5586 57.9341 24.5811 58.3101 23.3781 58.2349C21.7991 58.1597 20.1449 58.1597 18.5658 58.3853C17.2124 58.5356 16.2349 57.9341 15.4078 57.107C14.6559 56.3551 13.904 56.3551 13.1521 56.7311C12.325 57.107 11.4979 57.5582 10.5204 58.0845C10.4452 57.4078 10.5204 56.7311 10.37 56.0543C10.2948 55.6032 9.91889 54.9265 9.69332 54.9265C8.94141 54.8513 8.86622 55.528 8.86622 56.0543C8.86622 57.3326 8.86622 58.5356 8.71584 59.8891C7.96393 58.3101 7.21202 56.8062 6.46011 55.2272C6.30973 55.2272 6.30973 55.2272 6.15935 55.2272C6.08416 55.6032 5.93378 56.0543 5.85859 56.5807C4.80591 54.8513 3.82843 53.1219 2.85095 51.4677C2.32461 51.1669 2.24942 51.0917 2.24942 51.0166C1.6479 49.8135 0.520032 48.4601 0.29446 47.5578C-0.382258 44.7757 0.144078 41.8433 1.49751 39.2116C1.49751 39.8131 1.49751 40.4898 1.49751 41.0914C1.49751 41.7681 1.42232 42.4448 1.49751 43.0463C1.72309 46.2795 2.62538 49.2872 4.73072 51.7685C5.18187 52.2948 5.85859 52.5956 6.61049 52.8963C4.95629 49.6631 3.45248 46.5051 3.07652 43.1215L4.73072 43.723C4.58034 43.1215 4.42996 42.52 4.20439 41.9936C3.82843 41.0914 3.45248 39.0612 2.92614 37.1814C3.67805 38.6852 4.50515 40.2643 5.25706 41.4673C5.93378 42.4448 6.76088 43.7982 6.68568 43.9486C6.08416 44.3246 5.40744 45.8284 6.30973 47.1818C6.91126 48.0841 7.51278 48.836 7.88874 49.8887C8.26469 50.8662 8.41508 50.8662 8.71584 52.4452C8.86622 51.9188 8.94141 50.791 8.94141 50.5654C8.94141 50.1895 8.71584 47.7833 7.96393 47.1818C7.06164 46.3547 7.43759 44.2494 8.33988 43.4975C8.64065 43.2719 8.49027 42.2944 8.49027 42.2944C9.8437 41.5425 11.1219 40.7906 12.4754 39.9635C11.6483 39.2868 10.5204 39.6627 8.41508 41.0162C7.73836 41.4673 6.91126 41.0162 6.68568 40.2643L6.38492 39.0612C6.76088 38.986 7.28721 38.986 7.73836 38.8356C8.11431 38.6852 8.49027 38.3093 8.94141 37.9333C7.88874 37.783 7.06164 37.783 6.46011 37.407C6.08416 37.1814 6.08416 36.3543 5.93378 35.828C6.61049 36.0536 7.06164 36.2039 7.58798 36.3543L7.73836 36.0536C7.28721 35.5272 6.68568 35.0009 6.30973 34.3994C5.48263 33.0459 5.33225 31.6173 5.63301 30.1135C5.7082 29.7375 5.48263 29.3616 5.33225 28.9856C4.95629 29.2112 4.50515 29.4368 4.20439 29.7375C3.97881 30.0383 3.90362 30.4894 3.75324 30.8654C2.55019 30.2639 1.12156 30.1135 1.27194 28.3089L2.62538 28.9856C2.62538 28.9856 2.32461 28.1585 2.02385 27.933C0.670414 26.5795 0.29446 24.6997 0.29446 22.7448C0.29446 21.3913 1.5727 20.5642 2.85095 21.241C5.18187 22.5192 7.73836 22.9704 10.2948 23.4215C11.1219 23.5719 12.0242 23.3463 13.1521 23.1959ZM25.709 55.4528C25.4082 54.1746 25.709 53.8738 26.8368 54.2498C27.288 54.4001 27.5888 54.7761 27.9647 55.0769C28.1903 55.2272 28.3407 55.3776 28.7918 55.6784C27.5136 51.4677 24.2052 50.1895 19.2426 50.415C15.2574 50.6406 12.6258 52.9715 12.4754 55.6032C12.9265 55.3024 13.1521 54.7761 13.6032 54.4753C14.0544 54.1746 14.7311 53.7986 15.1071 54.0994C15.4078 54.325 15.1071 55.2272 15.2574 55.6784C17.7387 57.107 20.596 57.0318 20.5208 55.3024C20.5208 56.5807 21.3479 56.5807 22.0246 56.5807C23.4533 56.7311 24.8067 56.2799 25.709 55.4528ZM28.7918 41.9185C27.3632 41.5425 27.3632 40.565 27.288 39.6627C27.288 39.4372 27.2128 39.1364 27.0624 38.986C26.6865 38.6101 26.2353 38.3093 25.8594 38.0085C25.7842 38.4597 25.709 38.9108 25.709 39.362C25.709 39.8131 25.8594 40.3394 25.8594 40.7906C25.8594 41.0914 25.709 41.4673 25.5586 41.6177C24.5811 42.8207 23.4533 43.8734 21.9494 44.3998C21.6487 44.5501 21.1975 44.9261 21.1223 45.2269C21.0471 45.8284 21.0471 46.4299 21.0471 46.9562C21.0471 47.3322 21.2727 47.7082 21.6487 47.8585C23.1525 48.4601 24.5059 48.9864 25.9346 49.4375C26.3105 49.5879 26.7617 49.5879 27.0624 49.4375C27.6639 49.212 28.2655 48.836 28.867 48.4601C29.0926 48.3097 29.1678 48.0089 29.3933 47.7833C29.1678 47.7082 28.9422 47.7833 28.7166 47.7082C28.0399 47.5578 27.0624 47.633 26.6113 47.1818C27.5888 46.8059 28.7918 47.0314 29.4685 45.6028C28.1903 45.9036 27.1376 46.2043 26.0097 46.4299C25.9345 46.3547 25.9346 46.3547 25.9346 46.2043C26.9872 45.1517 29.0174 45.0013 29.1678 42.8959C28.1151 43.5727 27.3632 44.9261 25.5586 44.4749C26.6865 43.6478 27.5887 42.8959 28.7918 41.9185ZM15.3326 38.0085C14.2048 38.0085 13.9792 38.6852 13.6784 39.362C13.3777 40.2643 14.4303 41.2417 12.7761 41.6929C13.4529 42.2192 14.28 43.6478 15.3326 44.5501C13.5281 44.9261 12.7761 43.4975 11.5731 42.8959C11.949 45.0013 13.904 45.2269 15.0319 46.3547C14.9567 46.4299 14.9567 46.4299 14.9567 46.5051C13.8288 46.2043 12.7761 45.9788 11.4227 45.6028C12.4002 47.4826 14.28 46.5051 15.483 47.4826C14.3552 48.2345 13.3025 47.7833 12.2498 47.7082C12.0242 47.7082 11.7987 47.8585 11.5731 47.9337C11.7235 48.1593 11.7987 48.4601 12.0242 48.5353C12.5506 48.836 13.0017 49.212 13.6032 49.3624C14.0544 49.5127 14.6559 49.5127 15.1071 49.4375C16.6109 48.9864 18.0395 48.4601 19.4681 47.8585C19.6937 47.7833 19.9945 47.4074 20.0697 47.1818C20.1449 46.7307 20.0697 46.2043 20.0697 45.7532C20.1449 45.0013 19.7689 44.6253 19.1674 44.3998C17.7387 44.0238 16.6109 43.1967 15.7838 42.0688C15.4078 41.6177 15.1071 40.7906 15.1071 40.1891C15.0319 39.5123 15.2574 38.7604 15.3326 38.0085ZM17.1372 39.362C17.1372 39.362 16.4605 39.7379 16.4605 40.2643C16.4605 41.0162 16.6861 41.1665 16.8365 41.3169C17.1372 41.6177 18.4907 41.6929 18.7914 41.6929C20.7464 41.6929 21.5735 41.6929 23.5284 41.6177C23.9796 41.6177 24.2052 41.4673 24.5059 41.0914C24.6563 40.8658 24.7315 40.4898 24.5059 40.0387C24.3555 39.8131 24.2804 39.4372 24.0548 39.2868C23.9044 39.5123 24.13 40.2643 23.0021 40.6402C22.551 40.7906 21.2727 40.941 20.7464 40.941C18.2651 41.0162 17.062 40.7154 17.1372 39.362ZM11.6483 33.1211C11.6483 33.7226 11.6483 34.4746 12.6258 34.7753C13.2273 35.0009 13.904 34.1738 13.9792 33.6475C13.6032 33.1211 13.2273 32.9707 12.8513 32.8204C11.8739 32.4444 11.6483 32.3692 11.6483 33.1211ZM26.912 33.7226C26.9872 34.3994 27.3632 35.2265 28.2655 34.7753C29.5437 34.0986 29.0926 33.0459 29.0926 32.67C28.7918 32.7452 28.2655 32.7452 28.0399 32.8204C27.5887 32.9707 27.2128 33.3467 26.912 33.7226Z" fill="white"/>
</g>
<defs>
<clipPath id="clip0_1534_40532">
<rect width="180" height="80" fill="white"/>
</clipPath>
</defs>
</svg>
