<svg width="240" height="80" viewBox="0 0 240 80" fill="none" xmlns="http://www.w3.org/2000/svg">
<path fill-rule="evenodd" clip-rule="evenodd" d="M1.74428 18.0002H21.5151C22.6332 17.9941 23.7467 18.1457 24.8225 18.4506L24.8398 18.4558C32.3591 20.6427 37.7425 25.3742 41.1909 32.389C41.3687 32.75 41.7554 33.2241 41.3565 33.5713C40.9577 33.9185 40.5714 33.4438 40.2176 33.2393C38.0245 31.9725 35.7175 31.0348 33.172 30.8314C26.7543 30.3182 20.3248 30.723 13.9019 30.6003C13.1316 30.5858 12.8648 30.9634 12.816 31.7143C12.7328 32.9933 13.4871 33.1004 14.4574 33.1004C21.0149 33.0842 27.5725 33.0815 34.1301 33.0924C34.9488 33.0759 35.7673 33.1375 36.5744 33.2764C37.9908 33.5327 39.2703 34.2833 40.1852 35.3947C41.1001 36.506 41.5909 37.9059 41.5703 39.3452C41.5747 46.0674 41.5747 52.7905 41.5703 59.5144C41.5703 61.2969 41.5561 61.3083 39.7477 61.3097C33.8801 61.3136 28.0126 61.3136 22.145 61.3097C13.2345 61.3052 3.83858 54.9592 0.475015 46.6718C0.334332 46.3252 -0.0201471 45.907 0.30176 45.5931C0.708562 45.1963 1.09249 45.6738 1.43138 45.8776C3.95709 47.397 6.6564 48.3911 9.6194 48.4164C15.614 48.4677 21.6121 48.4511 27.6088 48.4646C28.3957 48.4667 28.938 48.2716 28.9515 47.3093C28.9661 46.2767 28.3805 46.1052 27.5447 46.0726C22.1104 45.8595 16.6743 46.0085 11.2397 45.9864C9.38689 45.9787 7.53584 46.1596 5.68097 45.959C2.63169 45.6305 0.0460363 43.0514 0.0224737 39.9865C-0.0295027 33.2268 0.0224728 26.4661 0.0408378 19.7057C0.0413866 19.2539 0.220966 18.8207 0.540245 18.5011C0.859523 18.1814 1.29248 18.0013 1.74428 18.0002ZM78.5505 57.1558C78.5505 51.2672 78.5505 45.3786 78.5505 39.49C78.5505 39.2925 78.5478 39.095 78.5543 38.8978C78.5689 38.4591 78.5627 37.9907 79.1933 38.0128C79.7543 38.0322 79.7598 38.4598 79.7654 38.8649C79.7727 39.3847 79.7654 39.9044 79.7654 40.375C79.7957 40.4012 79.8319 40.4198 79.8709 40.4291C79.9099 40.4385 79.9506 40.4383 79.9895 40.4285C80.0284 40.4188 80.0644 40.3999 80.0945 40.3733C80.1245 40.3467 80.1478 40.3133 80.1622 40.2759C82.244 37.7696 85.1356 36.9719 88.4001 38.0038C90.9434 38.8081 92.6968 41.2444 92.8971 44.3557C93.0474 46.6794 92.6739 48.8603 91.1403 50.7505C88.89 53.5254 82.6685 53.7222 80.4116 50.6289C80.2446 50.3939 80.005 50.2201 79.7297 50.1344V57.1558H78.5505ZM85.8591 38.7855C82.6529 38.771 80.4619 40.6477 79.9387 43.8151C79.8101 44.7242 79.8028 45.6464 79.9172 46.5574C80.3947 51.3971 84.9256 52.4948 87.9312 51.4349C90.8073 50.4213 92.1618 47.45 91.5391 43.6706C91.0301 40.5905 88.9458 38.7991 85.8574 38.7845L85.8591 38.7855ZM63.3221 32.2279C65.1933 32.1405 67.0412 32.3339 68.7398 33.2508C69.504 33.6453 70.1554 34.2274 70.633 34.9426C71.1106 35.6578 71.3987 36.4826 71.4703 37.3396C71.5171 37.7342 71.6526 38.2609 71.0299 38.3701C70.357 38.4879 70.3206 37.9719 70.245 37.5038C69.8871 35.2789 68.5471 34.0436 66.3887 33.5903C64.332 33.1425 62.2005 33.1673 60.1547 33.6627C59.0874 33.923 58.0867 34.3637 57.4717 35.3433C56.2558 37.2789 57.0385 39.5212 59.2655 40.4131C60.717 40.9308 62.216 41.3042 63.7407 41.5278C65.7165 41.8393 67.6449 42.3997 69.4799 43.1956C71.2063 43.9991 71.9131 45.4559 71.9967 47.2348C72.0784 48.983 71.3452 50.4678 69.7949 51.2568C65.7241 53.3286 61.5799 53.3161 57.5694 51.1085C55.71 50.0852 55.0866 48.2297 55.0925 46.1534C55.0925 45.7764 55.1844 45.5082 55.6203 45.4839C56.0801 45.4583 56.2689 45.7026 56.3098 46.1281C56.3311 46.5874 56.3848 47.0447 56.4706 47.4964C56.6428 48.2903 57.0261 49.0229 57.58 49.6171C58.1338 50.2113 58.8378 50.645 59.6176 50.8725C62.5321 51.8254 65.4736 51.9442 68.3614 50.7568C70.2672 49.9723 71.0372 48.4493 70.6636 46.4763C70.5677 45.9395 70.3285 45.4386 69.9711 45.0266C69.6138 44.6147 69.1517 44.3071 68.6338 44.1363C66.9182 43.4537 65.1018 43.155 63.3142 42.7503C61.7701 42.4474 60.2523 42.0232 58.7749 41.4817C56.1487 40.4301 55.069 37.9927 56.0316 35.3811C56.5021 34.1049 57.481 33.3817 58.6696 32.8945C60.1525 32.3351 61.74 32.1071 63.3204 32.2268L63.3221 32.2279ZM150.035 40.0066C151.656 38.1521 153.619 37.5897 155.862 37.9068C156.535 37.9743 157.184 38.1965 157.757 38.556C158.33 38.9156 158.813 39.4028 159.167 39.9796C159.412 40.3805 159.599 40.4346 159.85 40.0008C161.268 37.5509 165.551 37.3073 167.677 38.5205C169.132 39.3521 169.741 40.7218 169.771 42.313C169.83 45.4725 169.796 48.6337 169.792 51.7942C169.792 52.2215 169.814 52.7218 169.192 52.7249C168.57 52.7281 168.588 52.2322 168.586 51.8018C168.58 49.4646 168.583 47.1271 168.582 44.7895C168.582 44.2957 168.588 43.8016 168.579 43.3082C168.532 40.6193 167.399 39.1702 165.225 39.0115C162.303 38.7963 160.256 40.2021 159.944 42.8158C159.6 45.697 159.872 48.6025 159.809 51.4969C159.805 51.6615 159.809 51.8264 159.816 51.9907C159.832 52.3753 159.824 52.7423 159.304 52.7627C158.791 52.7828 158.603 52.4734 158.598 52.0177C158.586 50.9643 158.585 49.9109 158.584 48.8572C158.581 46.9808 158.593 45.1041 158.579 43.2274C158.561 40.8539 157.759 39.6359 155.932 39.1625C153.733 38.5925 151.675 39.438 150.63 41.3379C150.145 42.2406 149.902 43.254 149.926 44.2788C149.937 46.748 149.935 49.2171 149.92 51.6861C149.918 52.1165 150.061 52.7132 149.368 52.7457C148.604 52.7804 148.715 52.1584 148.714 51.6837C148.706 47.5685 148.707 43.4533 148.716 39.3379C148.716 38.8798 148.555 38.2315 149.32 38.2291C150.084 38.2266 149.872 38.8819 149.933 39.3358C149.957 39.5184 149.988 39.6979 150.035 40.0066ZM184.418 45.9046C182.487 45.9046 180.556 45.9177 178.625 45.8966C177.998 45.8897 177.772 46.0678 177.824 46.7556C178.065 49.8877 179.994 51.718 183.119 51.8462C185.784 51.9553 187.971 51.245 189.275 48.7148C189.314 48.623 189.372 48.5402 189.445 48.4716C189.518 48.4029 189.604 48.3499 189.698 48.3156C189.792 48.2814 189.891 48.2667 189.991 48.2725C190.091 48.2783 190.189 48.3044 190.278 48.3492C190.807 48.5755 190.461 48.9677 190.332 49.2623C189.303 51.6119 187.376 52.7035 184.95 52.9862C183.875 53.1182 182.787 53.0801 181.724 52.8732C179.405 52.4086 177.769 51.1012 177.063 48.8395C176.048 45.5844 176.162 42.4464 178.675 39.8261C180.692 37.7211 184.326 37.2103 187.282 38.5014C189.764 39.5856 191.123 41.9686 191.093 45.0626C191.087 45.7448 190.806 45.9105 190.212 45.906C188.281 45.8918 186.35 45.9008 184.418 45.9008V45.9046H184.418ZM183.595 44.7032C185.134 44.7032 186.673 44.7032 188.211 44.7032C189.673 44.7008 189.883 44.4194 189.482 43.013C188.704 40.2797 186.342 38.7838 183.158 39.0077C181.85 39.0892 180.61 39.6192 179.648 40.5082C178.685 41.3973 178.058 42.591 177.873 43.8882C177.788 44.5061 177.974 44.7199 178.587 44.7102C180.256 44.6863 181.926 44.7018 183.596 44.7032H183.595ZM230.525 40.7579C230.525 40.0039 230.516 39.3944 230.529 38.7852C230.538 38.3694 230.464 37.8548 231.106 37.8531C231.712 37.851 231.736 38.3212 231.738 38.7634C231.743 40.5063 231.741 42.2493 231.742 43.9922C231.742 46.5564 231.748 49.1205 231.734 51.6875C231.732 52.1126 231.888 52.7201 231.182 52.7343C230.439 52.7488 230.543 52.1341 230.529 51.6542C230.514 51.1743 230.525 50.6861 230.525 50.1781C230.09 50.2273 229.981 50.543 229.793 50.7432C228.698 51.9089 227.257 52.6915 225.684 52.9756C224.11 53.2597 222.487 53.0302 221.054 52.3209C220.296 51.9588 219.621 51.4441 219.071 50.8092C218.521 50.1743 218.108 49.4327 217.858 48.6309C216.994 46.0494 217.033 43.4641 218.425 41.0971C220.737 37.1615 226.574 36.6219 229.7 39.9616C229.918 40.1938 230.158 40.4041 230.526 40.7579H230.525ZM224.414 38.9987C223.54 38.9223 222.662 39.0809 221.871 39.4582C221.079 39.8355 220.403 40.4176 219.912 41.1442C218.179 43.6204 218.1 46.2944 219.368 48.9934C219.707 49.7464 220.234 50.3998 220.898 50.8912C221.562 51.3826 222.341 51.6955 223.16 51.8001C227.102 52.4456 230.292 49.9577 230.493 45.9396C230.697 41.8435 228.41 38.938 224.414 38.9987ZM134.4 53.0323C129.902 53.0347 126.977 50.0641 126.936 45.4493C126.896 40.9377 130.001 37.7997 134.508 37.7997C138.917 37.7997 141.88 40.8923 141.884 45.4978C141.888 50.087 138.964 53.0302 134.4 53.0323ZM134.482 38.9945C130.749 38.9844 128.165 41.5656 128.162 45.3072C128.158 49.2363 130.645 51.9328 134.293 51.9543C138.084 51.9765 140.655 49.4061 140.666 45.582C140.68 41.5119 138.323 39.0049 134.482 38.9948V38.9945ZM199.29 40.1685C201.221 37.8728 203.697 37.4605 206.428 38.0419C209.057 38.6019 210.482 40.3944 210.497 43.094C210.51 45.8928 210.5 48.6916 210.497 51.4903C210.5 51.7533 210.483 52.0162 210.446 52.2766C210.438 52.3507 210.414 52.4223 210.376 52.4868C210.338 52.5513 210.288 52.6072 210.227 52.6512C210.167 52.6951 210.098 52.7261 210.025 52.7421C209.952 52.7582 209.877 52.7589 209.803 52.7443C209.737 52.7444 209.671 52.7311 209.61 52.7051C209.549 52.6791 209.494 52.641 209.448 52.5932C209.402 52.5453 209.366 52.4886 209.343 52.4265C209.32 52.3644 209.309 52.2982 209.312 52.2319C209.294 51.9692 209.289 51.7055 209.289 51.4425C209.288 48.9072 209.288 46.3718 209.289 43.8363C209.284 40.1227 206.472 38.0797 202.91 39.1986C200.459 39.9685 199.169 41.8587 199.136 44.7968C199.112 46.9368 199.131 49.0772 199.13 51.2173C199.13 51.4806 199.127 51.7443 199.124 52.0077C199.12 52.4075 199.017 52.7353 198.538 52.7533C198.059 52.7714 197.927 52.4592 197.916 52.051C197.91 51.7876 197.907 51.5243 197.907 51.2609C197.907 47.4084 197.907 43.5559 197.907 39.7035C197.907 39.473 197.907 39.2426 197.913 39.0104C197.921 38.5811 198.002 38.2 198.55 38.2135C199.038 38.2259 199.102 38.5742 199.13 38.9654C199.158 39.3504 199.076 39.7509 199.29 40.1688V40.1685ZM109.225 39.9814C111.36 37.0069 117.274 37.1628 119.2 39.368C119.947 40.2239 120.451 41.1435 120.461 42.2787C120.487 45.4368 120.485 48.5952 120.495 51.7537C120.495 52.1511 120.551 52.579 119.956 52.6043C119.35 52.63 119.263 52.2322 119.263 51.7644C119.26 48.9348 119.174 46.1021 119.282 43.2749C119.396 40.3296 117.145 38.6442 114.37 38.8687C111.018 39.1397 109.252 41.1307 109.239 44.5144C109.23 46.8502 109.243 49.1864 109.229 51.5222C109.227 51.9546 109.356 52.5465 108.666 52.5752C107.893 52.6075 108.024 51.9723 108.023 51.5073C108.01 47.2958 108.013 43.0847 108.007 38.8732C108.007 38.4709 107.94 38.034 108.543 38.0378C109.048 38.0412 109.223 38.358 109.227 38.8133C109.228 39.2045 109.225 39.5933 109.225 39.9817V39.9814ZM238.785 42.6495C238.785 39.8183 238.785 36.9869 238.785 34.1555C238.785 33.8592 238.789 33.5626 238.803 33.2667C238.794 33.1842 238.804 33.1008 238.832 33.0227C238.86 32.9447 238.905 32.8739 238.964 32.8159C239.023 32.7578 239.095 32.714 239.174 32.6876C239.252 32.6611 239.336 32.6529 239.418 32.6634C239.493 32.6594 239.567 32.6713 239.637 32.6982C239.706 32.7251 239.769 32.7665 239.822 32.8196C239.874 32.8727 239.915 32.9363 239.941 33.0062C239.967 33.0761 239.978 33.1507 239.973 33.2251C239.994 33.4871 239.996 33.7511 239.996 34.0141C239.996 39.7754 239.996 45.5369 239.996 51.2987C239.996 51.3974 240.004 51.4969 239.994 51.5946C239.95 52.06 240.126 52.7034 239.392 52.7291C238.606 52.7575 238.795 52.086 238.792 51.6372C238.779 48.6406 238.786 45.6447 238.786 42.6488L238.785 42.6495ZM101.178 45.1717C101.178 47.2449 101.183 49.3181 101.173 51.3909C101.171 51.8354 101.256 52.4041 100.552 52.3871C99.8487 52.3701 99.969 51.7904 99.9679 51.3562C99.9589 47.1771 99.9589 42.9979 99.9679 38.8188C99.9679 38.3732 99.8851 37.8053 100.588 37.8222C101.291 37.8392 101.169 38.4186 101.172 38.8538C101.185 40.9596 101.178 43.0656 101.178 45.1717Z" fill="white"/>
</svg>
