<svg width="100" height="80" viewBox="0 0 100 80" fill="none" xmlns="http://www.w3.org/2000/svg">
<path fill-rule="evenodd" clip-rule="evenodd" d="M43.7671 17.5349C43.34 16.3211 42.9236 15.1277 42.5894 13.9084C42.2461 12.656 41.9893 11.3861 41.7959 10.1036C41.6884 9.38951 41.7046 9.36854 42.3902 9.12984C43.7769 8.64754 45.1913 8.26826 46.6443 8.04648C47.317 7.94379 47.3503 7.96561 47.4415 8.65481C47.8253 11.5559 48.6385 14.3308 49.8755 16.9808C50.0156 17.2806 50.0912 17.7698 50.4131 17.7854C50.8223 17.8052 50.8756 17.2865 51.0228 16.9732C52.2543 14.3521 53.063 11.605 53.4348 8.73094C53.5353 7.95479 53.5573 7.93635 54.3389 8.05223C55.7941 8.26826 57.2009 8.67934 58.5887 9.15301C59.2207 9.36854 59.2087 9.39476 59.1094 10.0814C58.7772 12.3779 58.1809 14.6059 57.3937 16.7863C57.3052 17.0316 57.0352 17.3239 57.2997 17.5555C57.5081 17.7377 57.7747 17.5012 57.999 17.408C60.2664 16.466 62.2499 15.099 63.9967 13.3806C64.0773 13.3016 64.1564 13.2214 64.2366 13.142C64.8761 12.5083 64.8742 12.5107 65.5883 13.1062C66.6505 13.9916 67.6703 14.9214 68.5609 15.9827C69.0109 16.519 69.006 16.5278 68.541 17.0148C65.1402 20.5757 61.0346 22.9136 56.2586 24.0866C56.0395 24.1403 55.8167 24.1809 55.6012 24.2458C55.0849 24.402 55.0487 24.5131 55.4439 24.9166C56.7505 26.2495 58.1937 27.4204 59.7469 28.4534C60.2312 28.7755 60.2493 28.7628 60.8145 28.2345C63.204 26.0006 65.9001 24.2255 68.8739 22.8754C69.7453 22.4797 70.6436 22.1403 71.5415 21.8077C72.1504 21.5822 72.2517 21.6347 72.5026 22.24C73.0644 23.5957 73.5452 24.9793 73.8529 26.4178C73.9911 27.0643 73.9827 27.0955 73.3244 27.3281C71.8851 27.8369 70.5018 28.4627 69.1818 29.2306C68.328 29.7271 67.5058 30.271 66.7133 30.8586C66.4939 31.0214 66.143 31.1545 66.179 31.457C66.2242 31.8337 66.6485 31.8065 66.9232 31.8936C68.9456 32.5341 71.0161 32.9354 73.1324 33.0981C74.7251 33.2208 74.4157 33.1702 74.2897 34.5215C74.1718 35.785 73.9261 37.0313 73.5678 38.251C73.3769 38.9008 73.3588 38.9257 72.6846 38.8766C70.3724 38.7081 68.1028 38.2943 65.8777 37.6415C60.2434 35.9885 55.3701 33.057 51.2172 28.914C50.4052 28.1041 50.5544 28.0144 49.6821 28.8934C45.2724 33.3365 40.0351 36.3519 33.9786 37.9328C32.1494 38.4102 30.2878 38.7254 28.4018 38.87C27.5322 38.9367 27.5444 38.9125 27.3001 38.1C26.9085 36.7979 26.7133 35.4607 26.5609 34.1158C26.4594 33.2199 26.4766 33.1901 27.425 33.1237C29.4856 32.9795 31.5091 32.6368 33.4889 32.045C33.8397 31.9401 34.1879 31.8256 34.5332 31.7037C34.8314 31.5981 34.8654 31.4012 34.634 31.2046C34.3122 30.9317 33.9744 30.6753 33.6266 30.4366C31.7586 29.1549 29.7754 28.0956 27.6309 27.3487C26.8853 27.089 26.8787 27.0777 27.0552 26.3295C27.3791 24.9555 27.7931 23.6104 28.3688 22.3178C28.6892 21.5986 28.7005 21.5804 29.4329 21.8335C31.8698 22.6758 34.1556 23.8209 36.3035 25.2478C37.6689 26.1549 38.9383 27.1801 40.1523 28.2776C40.6911 28.765 40.6906 28.7571 41.2891 28.3576C42.6761 27.4316 43.9623 26.3831 45.1438 25.206C45.2834 25.0668 45.4275 24.9306 45.5529 24.7792C45.752 24.5383 45.6618 24.3644 45.3945 24.2676C45.2363 24.2103 45.069 24.1776 44.9044 24.1396C40.0496 23.0215 35.8913 20.6686 32.4182 17.0999C32.3395 17.0191 32.2624 16.9368 32.1829 16.857C31.9731 16.6455 31.9332 16.4303 32.1458 16.191C33.2525 14.9449 34.4374 13.7817 35.7502 12.7513C36.0208 12.5388 36.2054 12.6623 36.4013 12.8641C37.0692 13.5519 37.7613 14.2127 38.5147 14.8092C39.939 15.9369 41.487 16.848 43.1748 17.52C43.3249 17.5799 43.4795 17.6758 43.7671 17.5349Z" fill="white"/>
<path fill-rule="evenodd" clip-rule="evenodd" d="M50.3718 55.7006C49.6678 55.7006 48.9624 55.7297 48.2605 55.6918C47.6388 55.6585 47.5505 55.5419 47.5485 54.906C47.541 52.7648 47.5224 50.6231 47.5578 48.4826C47.5691 47.7913 47.3707 47.2528 46.9484 46.7101C44.6144 43.7104 42.3091 40.688 39.9996 37.6692C39.4092 36.8972 39.4194 36.8917 40.3199 36.4586C41.4883 35.8968 42.6331 35.2927 43.7327 34.6026C44.5648 34.0806 44.5703 34.0909 45.1453 34.8415C46.7036 36.8756 48.2622 38.9095 49.822 40.9424C50.4459 41.7558 50.4624 41.7539 51.0681 40.9627C52.6601 38.883 54.2522 36.8032 55.8464 34.7251C56.3336 34.09 56.3439 34.0818 56.9925 34.49C58.2341 35.2714 59.5284 35.9519 60.8532 36.5795C61.4292 36.8524 61.4466 36.9399 61.0606 37.4457C58.668 40.5796 56.2798 43.7166 53.8632 46.8316C53.4931 47.3088 53.3297 47.7791 53.3358 48.374C53.3583 50.5151 53.3461 52.6564 53.343 54.7974C53.342 55.5695 53.316 55.6339 52.5666 55.6845C51.8381 55.7338 51.1036 55.6954 50.3719 55.6954C50.3719 55.697 50.3718 55.6987 50.3718 55.7006Z" fill="white"/>
<path fill-rule="evenodd" clip-rule="evenodd" d="M21.1525 69.4708C21.1525 69.9778 21.138 70.4853 21.1583 70.9915C21.1698 71.2785 21.0593 71.4756 20.8433 71.6392C18.9171 73.0996 16.2574 73.1208 14.6373 72.1103C13.1012 71.1522 12.4919 69.7291 12.5247 67.9635C12.5812 64.9068 15.2928 63.0807 17.9635 63.4291C18.9095 63.5526 19.7695 63.8276 20.5404 64.3884C20.7981 64.5759 20.8561 64.7658 20.6166 65.0076C20.5376 65.0873 20.476 65.1839 20.3992 65.2661C20.1321 65.5513 19.9785 66.0013 19.5999 66.1063C19.2312 66.2087 18.9744 65.7971 18.6527 65.6405C17.5927 65.1241 16.3374 65.2553 15.5806 65.9851C14.6517 66.8806 14.4052 68.2338 14.9575 69.4043C15.4478 70.4432 16.4487 70.9938 17.6551 70.8911C18.0515 70.8573 18.4343 70.7749 18.7946 70.6015C19.0076 70.499 19.1472 70.3657 19.1807 70.1011C19.2747 69.3542 19.1695 69.2204 18.4162 69.2032C16.9463 69.1695 17.1948 69.4672 17.1689 67.8755C17.1635 67.5463 17.2071 67.3484 17.6157 67.3579C18.6292 67.3815 19.6437 67.3753 20.6575 67.3629C21.0234 67.3584 21.1599 67.5081 21.1493 67.8655C21.1337 68.4001 21.1454 68.9357 21.1454 69.4708H21.1525Z" fill="white"/>
<path fill-rule="evenodd" clip-rule="evenodd" d="M33.8793 69.4262C33.8793 69.9335 33.8654 70.4414 33.8844 70.9479C33.8962 71.2637 33.7683 71.4664 33.5268 71.6589C31.9095 72.9486 29.2661 73.1828 27.4544 72.182C25.672 71.1971 24.776 68.9041 25.3704 66.8487C26.0447 64.5165 28.1844 63.1273 30.6138 63.4117C31.5593 63.5225 32.4217 63.806 33.1965 64.365C33.4955 64.5805 33.5345 64.7871 33.272 65.0496C33.1925 65.1289 33.129 65.2238 33.0546 65.3083C32.813 65.5818 32.6182 65.9597 32.3145 66.099C31.9535 66.2647 31.7033 65.8058 31.3849 65.6556C30.2718 65.1308 28.858 65.2046 28.0122 66.2742C27.1421 67.3745 27.1381 68.9187 28.0426 70.0205C28.7619 70.8964 30.3821 71.1757 31.4668 70.6105C31.8227 70.425 32.0196 69.738 31.8254 69.3643C31.7684 69.2545 31.6738 69.2054 31.558 69.1993C31.3893 69.1904 31.2184 69.2046 31.0518 69.1836C30.6734 69.1359 30.1515 69.3895 29.9463 69.032C29.7182 68.6341 29.8719 68.096 29.8788 67.6186C29.8813 67.4474 30.0062 67.374 30.1611 67.373C31.2881 67.3664 32.4151 67.3638 33.5423 67.3615C33.7898 67.361 33.8859 67.497 33.8837 67.7355C33.8786 68.299 33.882 68.8627 33.882 69.4262H33.8793Z" fill="white"/>
<path fill-rule="evenodd" clip-rule="evenodd" d="M78.5337 63.4589C79.6517 63.4047 80.5989 63.7302 81.4765 64.2748C81.9282 64.5549 81.9345 64.606 81.6112 65.0617C81.3696 65.4025 81.2197 65.8995 80.8405 66.0285C80.4823 66.1507 80.1684 65.6978 79.7947 65.5853C79.4722 65.4882 79.1576 65.3617 78.8317 65.2798C78.4624 65.1869 78.0969 65.2529 77.7714 65.4429C77.2564 65.7435 77.2485 66.3735 77.7773 66.6553C78.12 66.8379 78.5105 66.9355 78.886 67.0498C79.5851 67.2623 80.2962 67.4308 80.9443 67.7925C81.8277 68.2856 82.1821 69.025 82.1483 70.0259C82.114 71.0393 81.746 71.8437 80.8369 72.3125C79.4687 73.018 78.0603 72.8928 76.6655 72.3783C76.1374 72.1834 75.6497 71.8987 75.2029 71.5489C74.9803 71.3748 74.9359 71.207 75.1562 70.9965C75.2777 70.8803 75.3768 70.7413 75.4901 70.6164C75.697 70.3886 75.8679 70.0802 76.126 69.9584C76.4593 69.8012 76.6307 70.2278 76.8909 70.3674C77.5242 70.7074 78.1767 70.9292 78.9009 70.9214C79.1581 70.9189 79.4074 70.8859 79.6373 70.7677C80.2199 70.4682 80.2573 69.8487 79.6955 69.5106C79.2098 69.2184 78.6465 69.1159 78.1121 68.9455C77.6843 68.8092 77.2422 68.7082 76.8278 68.5397C75.9176 68.1694 75.3783 67.5144 75.3247 66.4938C75.2672 65.3972 75.5891 64.4972 76.5728 63.9124C77.1984 63.5404 77.8807 63.4106 78.5337 63.4589Z" fill="white"/>
<path fill-rule="evenodd" clip-rule="evenodd" d="M1.00003 64.0773C1.66115 63.9377 2.33579 64.0436 3.00232 64.0062C3.32222 63.9883 3.42728 64.2453 3.555 64.4564C4.00634 65.2035 4.44737 65.4773 4.89499 66.2269C5.03828 66.4666 5.19002 66.7013 5.33297 66.9303C5.61616 66.928 5.65811 66.7047 5.752 66.5524C6.26949 65.7137 6.79426 64.8785 7.28231 64.0227C7.47009 63.6934 7.67749 63.5094 8.07183 63.5243C8.62958 63.5456 9.18868 63.5299 9.71497 63.5299C9.87788 63.8257 9.68959 63.9636 9.59334 64.1154C8.703 65.5181 7.81706 66.9237 6.90574 68.3128C6.6009 68.7772 6.42987 69.2436 6.45896 69.8094C6.49669 70.5399 6.47588 71.2739 6.46793 72.0063C6.46116 72.6227 6.45321 72.6227 5.87279 72.6461C4.41675 72.7048 4.32929 72.698 4.43959 71.2854C4.55834 69.766 4.15031 68.9736 3.24829 67.7682C2.52493 66.8018 1.93114 65.7377 1.2883 64.7118C1.17208 64.5261 0.997324 64.362 1.00003 64.0773Z" fill="white"/>
<path fill-rule="evenodd" clip-rule="evenodd" d="M93.4034 68.0169C93.4034 66.7498 93.3988 65.4826 93.4053 64.2153C93.4087 63.5476 93.4174 63.5476 94.0369 63.5324C95.4619 63.497 95.4613 63.497 95.462 64.9399C95.4629 66.6574 95.4615 68.375 95.4681 70.0928C95.4705 70.7417 95.4793 70.7502 96.1032 70.7537C97.2014 70.76 98.2995 70.7486 99.3978 70.7566C99.9848 70.761 100 70.7725 99.9961 71.3761C99.9851 72.9044 100.158 72.6357 98.773 72.6472C97.1964 72.6602 95.6195 72.6536 94.0425 72.6472C93.4112 72.6445 93.3993 72.6345 93.3951 71.9869C93.3867 70.6637 93.3927 69.3401 93.3927 68.0169H93.4034Z" fill="white"/>
<path fill-rule="evenodd" clip-rule="evenodd" d="M88.6093 68.0785C88.61 69.3753 88.6143 70.672 88.6082 71.9687C88.605 72.6376 88.5965 72.6376 87.979 72.6522C86.5179 72.687 86.514 72.687 86.5115 71.1978C86.5072 68.9145 86.5069 66.6311 86.5093 64.3478C86.5101 63.5427 86.5155 63.5427 87.2712 63.5341C88.6087 63.5187 88.6087 63.5187 88.6087 64.8649C88.6087 65.9361 88.6087 67.0073 88.6093 68.0785Z" fill="white"/>
<path fill-rule="evenodd" clip-rule="evenodd" d="M55.7419 67.7716C54.956 68.0693 54.134 67.8957 53.3274 67.9106C53.1122 67.9147 53.0789 67.7223 53.0772 67.5468C53.0739 67.2387 53.0761 66.9303 53.0761 66.5388C53.0993 65.1856 52.865 65.422 54.3294 65.3963C54.7792 65.3883 55.2265 65.4042 55.6592 65.5467C56.1664 65.7135 56.4619 66.0772 56.5037 66.584C56.545 67.0844 56.246 67.5806 55.7419 67.7716ZM56.7549 69.4836C56.9239 69.3586 56.9855 69.2988 57.0582 69.2615C58.3312 68.6066 58.8019 67.2619 58.5329 65.8764C58.2732 64.5393 57.3989 63.8047 55.8429 63.6093C54.3562 63.4226 52.8584 63.5689 51.3665 63.528C50.9915 63.5176 50.9823 63.7618 50.9827 64.035C50.9854 66.7412 50.9879 69.4474 50.9805 72.1534C50.9796 72.4978 51.0703 72.681 51.455 72.6557C51.8197 72.6317 52.189 72.6301 52.5536 72.6562C52.9652 72.6858 53.1 72.5164 53.0841 72.117C53.0597 71.4975 53.075 70.8767 53.0785 70.2565C53.0794 70.0906 53.0804 69.9217 53.2739 69.8343C53.7613 69.6145 54.5728 69.8508 54.8964 70.322C55.3434 70.9726 55.7839 71.6271 56.2259 72.2808C56.3521 72.4672 56.4585 72.6584 56.7387 72.6531C57.3998 72.6411 58.0611 72.6492 58.9162 72.6492C58.133 71.5021 57.4583 70.5138 56.7549 69.4836Z" fill="white"/>
<path fill-rule="evenodd" clip-rule="evenodd" d="M44.5433 68.38C44.43 69.7675 43.4209 70.6927 41.9469 70.7573C41.7783 70.7648 41.6089 70.7583 41.4399 70.7583C40.2172 70.7507 40.3848 70.885 40.3757 69.6657C40.3674 68.539 40.3738 67.4123 40.3726 66.2857C40.3715 65.2671 40.3452 65.4 41.3034 65.4029C41.6401 65.4041 41.9825 65.4121 42.3123 65.4719C43.7724 65.7364 44.6635 66.9096 44.5433 68.38ZM42.8337 63.6434C41.4612 63.4162 40.0764 63.581 38.6982 63.5317C38.3282 63.5185 38.3089 63.7561 38.3093 64.0313C38.3135 66.737 38.3216 69.4427 38.3086 72.1484C38.3067 72.5806 38.4949 72.6715 38.8716 72.6564C39.4062 72.6351 39.9423 72.651 40.4779 72.651V72.648C41.0415 72.648 41.6072 72.6784 42.1684 72.6417C43.6036 72.548 44.8836 72.0648 45.7695 70.8827C47.8948 68.0467 46.3333 64.2225 42.8337 63.6434Z" fill="white"/>
<path fill-rule="evenodd" clip-rule="evenodd" d="M65.8322 68.7625C66.2101 67.8517 66.539 67.0596 66.9286 66.1202C67.3827 67.0642 67.7076 67.8711 67.9998 68.7625H65.8322ZM71.506 71.9288C70.4617 69.4662 69.4186 67.0033 68.3698 64.5429C67.8054 63.219 68.0443 63.5473 66.7183 63.4717C66.1772 63.4408 65.9239 63.6517 65.7228 64.1342C64.6499 66.7071 63.5455 69.2668 62.4537 71.8319C62.3495 72.0772 62.2032 72.3166 62.258 72.6519C62.8012 72.6519 63.307 72.6349 63.811 72.6578C64.1525 72.6734 64.3222 72.5272 64.4283 72.2186C64.5562 71.8463 64.7289 71.4898 64.8674 71.1209C64.9896 70.7961 65.1802 70.6269 65.5568 70.6355C66.4861 70.657 67.4163 70.6519 68.3461 70.6394C68.6756 70.6349 68.8715 70.7631 68.9844 71.0688C69.1307 71.4646 69.2958 71.8534 69.4567 72.2438C69.5438 72.4556 69.6363 72.6532 69.9258 72.6485C70.5092 72.6387 71.0932 72.6454 71.6552 72.6454C71.741 72.3194 71.5921 72.1317 71.506 71.9288Z" fill="white"/>
</svg>
