<svg width="92" height="28" viewBox="0 0 92 28" fill="none" xmlns="http://www.w3.org/2000/svg">
<path d="M46.0623 27.5896C31.0829 27.5896 16.102 27.5869 1.12255 27.603C0.632035 27.603 0.544922 27.4918 0.544922 27.02C0.562345 18.3409 0.562345 9.66035 0.544922 0.98118C0.544922 0.513449 0.626674 0.396851 1.12121 0.396851C31.0815 0.411593 61.0405 0.411593 91.0008 0.396851C91.4658 0.396851 91.5462 0.497366 91.5449 0.946335C91.5275 9.64829 91.5288 18.3503 91.5449 27.0522C91.5449 27.4985 91.4699 27.603 91.0021 27.603C76.0226 27.5869 61.0418 27.5896 46.0623 27.5896Z" fill="#FEFEFE"/>
<path d="M4.83492 16.6777C4.49317 16.1657 4.15276 15.6538 3.80966 15.1418C3.47997 14.6499 3.1476 14.1581 2.8742 13.5791C4.46636 14.406 6.05853 15.2343 7.65069 16.0612C8.3141 16.1483 8.81265 16.6066 9.41575 16.8305C10.9262 17.6011 10.571 17.5501 11.6874 16.4833C11.7839 16.3922 11.8723 16.293 11.9675 16.2006C12.5465 15.7087 12.9767 15.052 13.6642 14.6808C15.9841 12.3796 18.3067 10.0798 20.6239 7.77602C22.8312 5.58211 25.0332 3.38417 27.2499 1.17551C27.3732 1.42479 27.1668 1.52262 27.0797 1.64994C23.5844 6.7052 20.0838 11.7578 16.5845 16.8117C16.5349 16.8827 16.5054 16.9685 16.4652 17.0462C16.4116 17.4577 16.086 17.719 15.9064 18.0621C15.6825 18.3864 15.4735 18.7215 15.2282 19.0311C13.8692 21.0414 12.4674 23.0222 11.1084 25.0339C10.5831 25.385 10.5335 25.3649 9.97997 24.5822C8.89038 22.8815 7.72306 21.2317 6.61606 19.543C6.25956 18.9279 5.76368 18.4065 5.42193 17.782C5.27987 17.3866 4.8443 17.1454 4.8376 16.6804L4.83492 16.6777Z" fill="#384B56"/>
<path d="M67.0366 16.9404C66.0797 16.9404 65.1683 16.927 64.2583 16.9457C63.8549 16.9538 63.6552 16.931 63.7866 16.415C64.0626 15.3241 64.0278 15.316 65.167 15.316C66.3705 15.316 67.5753 15.3308 68.7775 15.308C69.1836 15.2999 69.3149 15.367 69.2131 15.8132C68.7936 17.6507 68.4022 19.4948 68.0203 21.3389C67.8594 22.1176 67.2724 21.6512 66.8891 21.7369C66.4495 21.8361 66.5501 21.4582 66.5407 21.2116C66.534 21.0159 66.5393 20.8189 66.5393 20.5053C65.1536 21.9487 63.5373 22.2958 61.7226 21.8683C59.7646 21.4073 58.4284 20.2172 58.0331 18.2631C57.434 15.2959 57.9915 12.5606 60.4776 10.5784C62.5147 8.95273 64.8627 8.84149 67.2322 9.80376C68.5966 10.3573 69.331 11.4616 69.4851 12.9385C69.524 13.3097 69.4395 13.4907 69.0361 13.4424C68.882 13.4237 68.7239 13.4263 68.5684 13.4424C67.8541 13.5094 67.259 13.5295 67.1465 12.5284C67.0754 11.8958 66.4911 11.4978 65.888 11.2512C64.3843 10.6347 62.5335 11.0247 61.4854 12.263C60.0863 13.9168 59.656 15.8682 60.1466 17.9415C60.6934 20.252 63.7209 21.1044 65.5905 19.5404C66.3879 18.8729 66.8047 17.9884 67.0366 16.9404Z" fill="#384B56"/>
<path d="M44.8964 17.4764C44.5975 19.8017 42.7373 21.686 40.4831 21.9728C39.6146 22.0827 38.7462 22.0707 37.8951 21.8428C36.0966 21.3617 34.8971 20.2574 34.3704 18.4601C33.5475 15.6538 34.5915 12.1518 36.8243 10.5275C38.9016 9.01571 41.18 8.78118 43.5092 9.88819C44.8481 10.5248 45.4566 11.7149 45.5343 13.1797C45.5504 13.4853 45.474 13.6408 45.1349 13.6006C44.9366 13.5778 44.7329 13.5791 44.5332 13.5992C43.8269 13.6729 43.3203 13.6394 43.2265 12.6812C43.1353 11.7551 42.3781 11.2539 41.4815 11.0743C39.8612 10.7499 38.5076 11.2485 37.5319 12.5632C36.3874 14.1058 36.0497 15.8749 36.3995 17.7431C36.6742 19.2066 37.6592 20.0831 39.0557 20.2533C40.5863 20.441 41.8367 19.8928 42.3727 18.4843C42.7319 17.5434 43.2479 17.3572 44.0989 17.4697C44.3589 17.5046 44.627 17.4751 44.8977 17.4751L44.8964 17.4764Z" fill="#384B56"/>
<path d="M4.83492 16.6777C5.08018 17.0248 5.40451 17.321 5.52915 17.7458C5.12307 18.2122 4.51461 18.1385 3.99863 18.3033C3.38616 18.5004 3.33389 18.5633 3.76678 19.0083C5.53183 20.8256 7.18832 22.7434 8.93863 24.5742C9.06193 24.7028 9.21873 24.81 9.30451 24.9615C9.82317 25.8795 10.5147 25.9573 11.4917 25.645C14.4831 24.6908 17.5039 23.825 20.5274 22.974C20.6333 22.9445 20.7458 22.9271 20.8544 22.7944C20.1401 22.0224 19.2957 21.3818 18.5211 20.6675C18.2772 20.4423 17.9783 20.2721 17.8751 19.9277C17.9113 19.4171 18.3697 19.2924 18.6913 19.0418C18.7597 19.019 18.8133 19.0418 18.8535 19.0994C20.455 20.5308 22.0552 21.9621 23.7131 23.443C21.5553 24.0783 19.47 24.6948 17.3846 25.3073C15.0165 26.0028 12.647 26.6904 10.2829 27.398C9.94513 27.4985 9.72667 27.4757 9.47203 27.1969C6.60667 24.0702 3.72523 20.957 0.850489 17.8383C0.823685 17.8101 0.823685 17.7579 0.79554 17.6614C2.14513 17.333 3.48935 17.0047 4.83492 16.6777Z" fill="#00549F"/>
<path d="M9.31389 16.9323C8.7309 16.6964 8.1841 16.3935 7.65069 16.0625C9.65564 15.6015 11.6593 15.1418 13.6642 14.6808C13.1723 15.253 12.643 15.7891 12.0613 16.2729C11.1996 16.7179 10.2869 16.9497 9.31389 16.9323Z" fill="#0255A0"/>
<path d="M17.6513 18.0246C18.0158 18.3797 18.379 18.7362 18.7436 19.0914C18.5734 19.4546 18.0788 19.4908 17.9408 19.8861C17.8805 19.9129 17.8202 19.9143 17.7585 19.8955C17.1568 19.602 16.7748 19.0525 16.2776 18.6371C16.0806 18.4561 15.7764 18.3583 15.7857 18.0152C15.9854 17.6721 16.1583 17.3116 16.4666 17.0462C16.8619 17.3719 17.2573 17.6989 17.6527 18.0246H17.6513Z" fill="#025492"/>
<path d="M91.3184 21.2639C90.6925 17.8182 90.1082 14.3645 89.5105 10.9134C89.2679 9.51427 89.2652 9.55046 87.8111 9.49685C87.1866 9.47407 86.8703 9.7019 86.5647 10.2152C84.4043 13.8579 82.2144 17.4831 80.0272 21.1097C79.932 21.2679 79.9066 21.5038 79.6412 21.5413C79.3477 20.5871 79.6238 19.6435 79.6868 18.7C79.7578 17.6158 79.6787 16.6013 78.4417 15.9821C80.4413 15.4152 81.3567 14.1715 81.1918 12.3971C81.0296 10.6494 80.0325 9.74479 77.9994 9.57324C76.2424 9.42448 74.4787 9.57056 72.7204 9.49685C72.1508 9.47273 71.9632 9.66438 71.8586 10.1911C71.1925 13.5175 70.493 16.8358 69.8108 20.1582C69.7063 20.6688 69.3243 21.363 69.6017 21.6458C69.8684 21.9192 70.6096 21.7128 71.1389 21.7571C71.5638 21.7919 71.6965 21.6338 71.7715 21.217C72.0101 19.8875 72.3089 18.5687 72.5904 17.2473C72.648 16.9792 72.6453 16.6804 73.0876 16.6978C74.0659 16.738 75.051 16.6844 76.0267 16.7514C77.2744 16.8358 77.6202 17.2808 77.5317 18.5111C77.4714 19.3514 77.4057 20.1904 77.3561 21.032C77.328 21.5265 77.4835 21.7919 78.0799 21.7651C79.1922 21.7128 80.3073 21.7369 81.4223 21.7571C81.7936 21.7638 82.0241 21.6766 82.2117 21.3242C82.65 20.504 83.1592 19.7213 83.6082 18.9064C83.7704 18.6129 83.9567 18.5057 84.289 18.5124C85.2245 18.5339 86.1613 18.5205 87.0968 18.5205C88.1877 18.5205 88.8118 19.0646 88.969 20.1528C89.2049 21.7772 89.2049 21.7678 90.8735 21.7584C91.2554 21.7557 91.4042 21.741 91.3171 21.2625L91.3184 21.2639ZM77.9338 14.7317C77.1926 15.1217 76.3885 15.0895 75.5871 15.0855C75.4088 15.0855 75.2306 15.0855 75.0537 15.0855C74.5645 15.0855 74.074 15.0667 73.5848 15.0922C73.1961 15.1123 73.0192 15.0654 73.1358 14.5937C73.3757 13.6274 73.562 12.6477 73.7443 11.6693C73.8006 11.3691 73.9199 11.2646 74.2254 11.2713C75.248 11.2954 76.2733 11.2619 77.2945 11.3115C78.3278 11.3611 78.8384 11.7538 78.9966 12.4989C79.1869 13.3955 78.7526 14.3001 77.9311 14.7317H77.9338ZM88.1274 16.8975C87.0458 16.8827 85.963 16.8921 84.7541 16.8921C85.7579 15.1204 86.6934 13.4706 87.7159 11.6666C87.8406 12.4721 87.9438 13.1248 88.0416 13.7788C88.1729 14.654 88.3029 15.5305 88.4236 16.407C88.4544 16.6334 88.5522 16.9028 88.1274 16.8975Z" fill="#384B56"/>
<path d="M9.31389 16.9323C10.2118 16.6361 11.1392 16.4659 12.0613 16.2729C11.9461 16.4016 11.8362 16.5383 11.7129 16.6589C10.9918 17.363 10.1922 17.4541 9.31389 16.9323Z" fill="#F6F8FA"/>
<path d="M16.3379 18.5459C15.9345 18.6652 15.6356 19.1128 15.1344 18.9225C15.3515 18.621 15.5686 18.3181 15.7844 18.0165C15.9694 18.1934 16.153 18.3704 16.3379 18.5473V18.5459Z" fill="#F9FAFB"/>
<path d="M56.1514 10.7687C54.4024 8.97819 51.2087 8.71551 48.8513 10.1683C46.0409 11.8998 44.757 16.3654 46.2232 19.3192C46.703 20.2855 47.4307 21.0146 48.4104 21.4783C50.7517 22.588 53.7766 22.0599 55.5832 20.2105C57.0359 18.7242 57.5184 16.868 57.5653 15.3522C57.5961 13.0913 57.1418 11.7832 56.1501 10.7687H56.1514ZM54.2966 18.5714C53.6358 19.531 52.7446 20.1609 51.5532 20.2667C49.4088 20.4584 48.0056 19.2991 47.8234 17.128C47.6947 15.5881 48.0217 14.1273 48.8754 12.8152C49.4557 11.924 50.2532 11.3101 51.3079 11.0783C53.7846 10.5328 55.4478 12.0138 55.4237 15.1056C55.4036 16.1201 55.0886 17.4201 54.2966 18.5714Z" fill="#384B56"/>
<path d="M26.4886 17.5153C28.0486 17.5408 29.6086 17.5247 31.1686 17.5247C33.2245 17.5247 33.3089 17.4268 33.0315 15.3415C32.8358 13.8713 31.9245 12.8165 30.5615 12.5445C28.9881 12.2309 27.5809 12.6008 26.4511 13.748C24.9139 15.3093 24.4877 17.2325 24.8429 19.3353C25.0265 20.4235 25.655 21.2438 26.6977 21.6954C29.1463 22.7542 31.7798 21.4796 32.4874 18.885C31.769 18.6759 31.3951 18.8957 31.0561 19.5645C30.4128 20.8337 28.9251 21.359 27.5662 20.957C26.4256 20.6192 25.8279 19.6007 25.8199 18.1251C25.8172 17.5957 26.0209 17.5086 26.4873 17.5166L26.4886 17.5153ZM26.0933 16.3078C26.2662 14.6714 28.2631 13.1704 29.9289 13.4156C31.3924 13.6314 32.0612 14.8523 31.9553 16.2957C31.9299 16.6442 31.6792 16.5825 31.4688 16.5839C30.6459 16.5892 29.8217 16.5852 28.9988 16.5865C28.1532 16.5865 27.3075 16.5919 26.4618 16.5825C26.2916 16.5812 26.0531 16.6817 26.0933 16.3078Z" fill="#01549F"/>
</svg>
